<svg xmlns="http://www.w3.org/2000/svg" viewBox="0 0 313.04 86.89"><defs><style>.cls-1{fill:#fcee21;}</style></defs><title>logo-rect</title><g id="Layer_2" data-name="Layer 2"><g id="Layer_1-2" data-name="Layer 1"><path d="M313,0V86.86l-313,0V.88C11.06.88,301.58,0,313,0ZM4.44,82.06h304V7H4.44Z"/><path class="cls-1" d="M4.44,82.06V7h304v75.1Zm89.33-37-1.11.28a24.92,24.92,0,0,0,1.46-3c1.44-4.16,1.8-8.37-1.49-11.8a39.34,39.34,0,0,0-17.87-11c-5.52-1.54-6.93,0-5.69,5.73a16.06,16.06,0,0,1,.18,3.37q0,16.78,0,33.56v4.18c7.29,0,14.07.13,20.84,0,4.52-.12,8.81-5.24,7.76-9.46C96.85,52.91,95.16,49,93.77,45.09ZM193.48,66c-.44-1.84-.28-4.27-1.41-5.38-6-5.91-12.18-11.66-18.62-17.09-2-1.68-1.55-2.44-.13-3.68,6.6-5.76,13.27-11.45,19.79-17.31.69-.62.56-2.15.82-3.25-3.74.25-8.34-.78-11,1-4.29,2.92-7.34,7.69-10.84,11.74a27.29,27.29,0,0,0-2.22,3.51l-1.25-.49,1.89-16h-12a161.83,161.83,0,0,1,.06,46.41h12.68l-2.81-15.71,1.31-.47c3.06,3.52,6.34,6.86,9.11,10.59C182.39,64.75,186.6,67.56,193.48,66Zm-58.34.44c2.14,0,4.15.15,6.12,0,2.4-.23,4.35-.89,3.6-4.18-1.92-8.48-3.1-17.17-5.63-25.46-1.77-5.79-5.15-11.12-8.1-16.5-1.49-2.71-4.45-2.7-5.86-.1A141.21,141.21,0,0,0,118.48,34a95.24,95.24,0,0,0-5,15.32c-1.2,5.48-1.46,11.17-2.16,17h6.63c2-5.49,3.68-6.28,9.5-4.84,2.4.6,4.87.93,7.52,1.42ZM209.8,33.78l-.35,0c.37,5.86.67,11.72,1.12,17.57.53,6.75,6.45,13.1,13.09,14.36,3.64.69,6.85-.12,10.41-1.2a9.62,9.62,0,0,0,6.5-5.65A34.5,34.5,0,0,0,243,47.79c.52-9.12.62-18.27.7-27.41,0-.75-1.44-2.12-2.24-2.14-1.43,0-4,.5-4.14,1.22-.7,3.25-1.35,6.73-.89,10,1.17,8.27,1,16.31-2.05,24.16-1.34,3.48-8.4,4.74-10.32,1.62A22.2,22.2,0,0,1,220.52,46c-.7-8.09-.76-16.25-.84-24.39,0-2.69-1.19-3.54-3.56-3.54-1,0-2,.08-3,0-2.42-.23-3.42.73-3.34,3.23C209.9,25.47,209.8,29.63,209.8,33.78Zm-155,33.43c-.25-4.52-.08-8.78-.78-12.88A95.18,95.18,0,0,0,40.88,20.25c-1.07-1.74-2-1.93-3.36-.58a18,18,0,0,0-2.81,3.25C29.25,32.11,25,41.82,23.4,52.46c-.73,4.81-1,9.68-1.54,14.52,6.93.57,6.93.57,7.74-5.05,3.82,0,7.71-.19,11.57.12,1.11.09,2.1,1.64,3.15,2.52s2,2.32,3.15,2.53C49.77,67.49,52.18,67.21,54.79,67.21Zm208.4-22.79-1.73.06c-.37,3.73-1.32,7.52-1,11.17.47,4.58,4.07,6.44,8.32,8A25.23,25.23,0,0,0,287.51,63a7.33,7.33,0,0,0,3.75-4.4c2.1-8.31-1.11-14.86-8.66-19.29-4.2-2.46-8.2-5.25-12.29-7.9-2.54-1.65-1.24-4.1-.32-5.48,1.15-1.73,3.38-2,5.29-.17a19.72,19.72,0,0,0,3.93,3.13c2.08,1.18,4.44,2.73,6.73.79,1.84-1.56,1.09-5.1-1.16-7.21-5.5-5.15-11.94-5.92-18.35-2-7.08,4.29-7,15-.62,19.52,4.66,3.3,10.05,5.55,15,8.53a6.44,6.44,0,0,1,2.87,3.87c.16,1-1.31,2.76-2.47,3.32-5.59,2.7-13.13-.57-15.5-6.41C265,47.56,264,46,263.19,44.42Z"/><path d="M93.77,45.09C95.16,49,96.85,52.91,97.86,57c1,4.22-3.24,9.34-7.76,9.46-6.77.17-13.54,0-20.84,0V62.27q0-16.78,0-33.56a16.06,16.06,0,0,0-.18-3.37c-1.24-5.71.17-7.27,5.69-5.73a39.34,39.34,0,0,1,17.87,11c3.29,3.42,2.93,7.63,1.49,11.8a24.92,24.92,0,0,1-1.46,3ZM78.46,58.9c2,0,3.62,0,5.24,0,4.08-.05,5.58-2.33,4-6.09-1.06-2.55-6.25-5.23-9.27-4.75Zm-.14-31.73c0,4.62-.14,8.31.07,12,.09,1.54.89,3,1.37,4.57A41,41,0,0,0,84.38,41c.53-.41.62-1.52.72-2.34C85.73,33.53,82.18,30.88,78.32,27.17Z"/><path d="M193.48,66c-6.87,1.54-11.09-1.26-14.67-6.09-2.77-3.73-6.05-7.08-9.11-10.59l-1.31.47,2.81,15.71H158.51a161.83,161.83,0,0,0-.06-46.41h12l-1.89,16,1.25.49a27.29,27.29,0,0,1,2.22-3.51c3.5-4.06,6.55-8.82,10.84-11.74,2.67-1.81,7.27-.78,11-1-.25,1.11-.13,2.63-.82,3.25-6.52,5.85-13.19,11.55-19.79,17.31-1.42,1.24-1.86,2,.13,3.68,6.44,5.43,12.62,11.18,18.62,17.09C193.2,61.74,193,64.17,193.48,66Z"/><path d="M135.14,66.45l-.21-3.55c-2.64-.49-5.11-.82-7.52-1.42-5.82-1.44-7.49-.65-9.5,4.84h-6.63c.7-5.8,1-11.49,2.16-17a95.24,95.24,0,0,1,5-15.32,141.21,141.21,0,0,1,6.79-13.85c1.4-2.6,4.37-2.6,5.86.1,3,5.38,6.33,10.71,8.1,16.5,2.54,8.28,3.72,17,5.63,25.46.74,3.29-1.2,4-3.6,4.18C139.28,66.6,137.28,66.45,135.14,66.45ZM119.66,53.64l13,1.2c.47-8-3.58-14.79-5.08-22.22l-1-.07Z"/><path d="M209.8,33.78c0-4.15.1-8.31,0-12.46-.08-2.5.92-3.46,3.34-3.23,1,.1,2,0,3,0,2.36,0,3.53.85,3.56,3.54.08,8.14.14,16.29.84,24.39a22.2,22.2,0,0,0,3.53,9.18c1.92,3.12,9,1.85,10.32-1.62,3-7.85,3.23-15.88,2.05-24.16-.46-3.24.18-6.72.89-10,.16-.72,2.71-1.25,4.14-1.22.8,0,2.24,1.39,2.24,2.14-.08,9.14-.18,18.29-.7,27.41a34.5,34.5,0,0,1-2.41,11.08,9.62,9.62,0,0,1-6.5,5.65c-3.55,1.08-6.77,1.89-10.41,1.2-6.64-1.27-12.56-7.62-13.09-14.36-.46-5.85-.75-11.71-1.12-17.57Z"/><path d="M54.79,67.21c-2.61,0-5,.28-7.32-.12-1.16-.2-2.11-1.65-3.15-2.53s-2-2.42-3.15-2.52c-3.85-.31-7.74-.12-11.57-.12-.81,5.62-.81,5.62-7.74,5.05.5-4.84.81-9.71,1.54-14.52C25,41.82,29.25,32.11,34.72,22.92a18,18,0,0,1,2.81-3.25c1.33-1.35,2.28-1.16,3.36.58A95.18,95.18,0,0,1,54,54.33C54.71,58.43,54.54,62.69,54.79,67.21ZM44.49,56.76,37,34.55c-3.49,7.11-5.94,13.35-5.45,20.39Z"/><path d="M263.19,44.42c.83,1.6,1.8,3.14,2.47,4.8,2.37,5.83,9.91,9.11,15.5,6.41,1.16-.56,2.63-2.35,2.47-3.32a6.44,6.44,0,0,0-2.87-3.87c-4.91-3-10.31-5.22-15-8.53-6.41-4.54-6.46-15.23.62-19.52,6.41-3.88,12.85-3.11,18.35,2,2.25,2.11,3,5.65,1.16,7.21-2.29,1.94-4.65.39-6.73-.79a19.72,19.72,0,0,1-3.93-3.13c-1.9-1.86-4.13-1.56-5.29.17-.92,1.38-2.22,3.83.32,5.48,4.08,2.65,8.09,5.44,12.29,7.9,7.55,4.42,10.76,11,8.66,19.29a7.33,7.33,0,0,1-3.75,4.4,25.23,25.23,0,0,1-18.68.65c-4.25-1.52-7.85-3.38-8.32-8-.37-3.65.58-7.44,1-11.17Z"/><path class="cls-1" d="M78.46,58.9V48.07c3-.48,8.21,2.2,9.27,4.75,1.55,3.76,0,6-4,6.09C82.08,58.92,80.47,58.9,78.46,58.9Z"/><path class="cls-1" d="M78.32,27.17c3.86,3.71,7.41,6.36,6.78,11.47-.1.82-.19,1.94-.72,2.34a41,41,0,0,1-4.63,2.74c-.48-1.52-1.28-3-1.37-4.57C78.18,35.48,78.32,31.79,78.32,27.17Z"/><path class="cls-1" d="M119.66,53.64l7-21.09,1,.07c1.49,7.43,5.55,14.25,5.08,22.22Z"/><path class="cls-1" d="M44.49,56.76l-12.9-1.81c-.49-7,2-13.29,5.45-20.39Z"/></g></g></svg>