<?xml version="1.0" encoding="utf-8"?>
<!-- Generator: Adobe Illustrator 21.0.0, SVG Export Plug-In . SVG Version: 6.00 Build 0)  -->
<svg version="1.1" id="Layer_1" xmlns="http://www.w3.org/2000/svg" xmlns:xlink="http://www.w3.org/1999/xlink" x="0px" y="0px"
	 viewBox="0 0 313 84.6" style="enable-background:new 0 0 313 84.6;" xml:space="preserve">
<style type="text/css">
	.st0{fill:#FCEE21;}
</style>
<title>logo-rect</title>
<g id="Layer_1-2">
	<path d="M313,0v84.5H0V0C11.1,0,301.6,0,313,0z M4.4,79.8h304V4.7H4.4V79.8z"/>
	<path class="st0" d="M4.4,79.8V4.7h304v75.1H4.4z M93.8,42.8l-1.1,0.3c0.6-1,1-2,1.5-3c1.4-4.2,1.8-8.4-1.5-11.8
		c-4.9-5.2-11-9-17.9-11c-5.5-1.5-6.9,0-5.7,5.7c0.2,1.1,0.2,2.2,0.2,3.4c0,11.2,0,22.4,0,33.6v4.2c7.3,0,14.1,0.1,20.8,0
		c4.5-0.1,8.8-5.2,7.8-9.5C96.8,50.6,95.2,46.7,93.8,42.8L93.8,42.8z M193.5,63.7c-0.4-1.8-0.3-4.3-1.4-5.4
		c-6-5.9-12.2-11.7-18.6-17.1c-2-1.7-1.6-2.4-0.1-3.7c6.6-5.8,13.3-11.5,19.8-17.3c0.7-0.6,0.6-2.1,0.8-3.3c-3.7,0.3-8.3-0.8-11,1
		c-4.3,2.9-7.3,7.7-10.8,11.7c-0.8,1.1-1.6,2.3-2.2,3.5l-1.3-0.5l1.9-16h-12c2.2,15.4,2.3,31,0.1,46.4h12.7l-2.8-15.7l1.3-0.5
		c3.1,3.5,6.3,6.9,9.1,10.6C182.4,62.5,186.6,65.3,193.5,63.7z M135.1,64.1c2.1,0,4.1,0.2,6.1,0c2.4-0.2,4.4-0.9,3.6-4.2
		c-1.9-8.5-3.1-17.2-5.6-25.5c-1.8-5.8-5.1-11.1-8.1-16.5c-1.5-2.7-4.4-2.7-5.9-0.1c-2.5,4.5-4.8,9.1-6.8,13.8
		c-2.1,5-3.8,10.1-5,15.3c-1.2,5.5-1.5,11.2-2.2,17h6.6c2-5.5,3.7-6.3,9.5-4.8c2.4,0.6,4.9,0.9,7.5,1.4L135.1,64.1z M209.8,31.5
		h-0.4c0.4,5.9,0.7,11.7,1.1,17.6c0.5,6.8,6.4,13.1,13.1,14.4c3.6,0.7,6.9-0.1,10.4-1.2c2.9-0.8,5.3-2.8,6.5-5.7
		c1.4-3.5,2.2-7.3,2.4-11.1c0.5-9.1,0.6-18.3,0.7-27.4c0-0.8-1.4-2.1-2.2-2.1c-1.4,0-4,0.5-4.1,1.2c-0.7,3.3-1.4,6.7-0.9,10
		c1.2,8.3,1,16.3-2.1,24.2c-1.3,3.5-8.4,4.7-10.3,1.6c-1.9-2.8-3.1-5.9-3.5-9.2c-0.7-8.1-0.8-16.3-0.8-24.4c0-2.7-1.2-3.5-3.6-3.5
		c-1,0-2,0.1-3,0c-2.4-0.2-3.4,0.7-3.3,3.2C209.9,23.2,209.8,27.3,209.8,31.5z M54.8,64.9c-0.3-4.5-0.1-8.8-0.8-12.9
		c-2.1-12.1-6.6-23.7-13.1-34.1c-1.1-1.7-2-1.9-3.4-0.6c-1.1,1-2,2.1-2.8,3.3c-5.5,9.2-9.7,18.9-11.3,29.5c-0.7,4.8-1,9.7-1.5,14.5
		c6.9,0.6,6.9,0.6,7.7-5c3.8,0,7.7-0.2,11.6,0.1c1.1,0.1,2.1,1.6,3.2,2.5s2,2.3,3.2,2.5C49.8,65.2,52.2,64.9,54.8,64.9L54.8,64.9z
		 M263.2,42.1l-1.7,0.1c-0.4,3.7-1.3,7.5-1,11.2c0.5,4.6,4.1,6.4,8.3,8c6.1,2.2,12.8,2,18.7-0.7c1.8-0.9,3.2-2.5,3.8-4.4
		c2.1-8.3-1.1-14.9-8.7-19.3c-4.2-2.5-8.2-5.3-12.3-7.9c-2.5-1.6-1.2-4.1-0.3-5.5c1.1-1.7,3.4-2,5.3-0.2c1.2,1.2,2.5,2.3,3.9,3.1
		c2.1,1.2,4.4,2.7,6.7,0.8c1.8-1.6,1.1-5.1-1.2-7.2c-5.5-5.1-11.9-5.9-18.4-2c-7.1,4.3-7,15-0.6,19.5c4.7,3.3,10,5.5,15,8.5
		c1.4,0.9,2.5,2.3,2.9,3.9c0.2,1-1.3,2.8-2.5,3.3c-5.6,2.7-13.1-0.6-15.5-6.4C265,45.3,264,43.7,263.2,42.1L263.2,42.1z"/>
	<path d="M93.8,42.8c1.4,3.9,3.1,7.8,4.1,11.9c1,4.2-3.2,9.3-7.8,9.5c-6.8,0.2-13.5,0-20.8,0V60c0-11.2,0-22.4,0-33.6
		c0.1-1.1,0-2.3-0.2-3.4c-1.2-5.7,0.2-7.3,5.7-5.7c6.8,2,13,5.8,17.9,11c3.3,3.4,2.9,7.6,1.5,11.8c-0.4,1-0.9,2-1.5,3L93.8,42.8z
		 M78.5,56.6c2,0,3.6,0,5.2,0c4.1,0,5.6-2.3,4-6.1c-1.1-2.5-6.3-5.2-9.3-4.8L78.5,56.6z M78.3,24.9c0,4.6-0.1,8.3,0.1,12
		c0.1,1.5,0.9,3,1.4,4.6c1.6-0.8,3.1-1.7,4.6-2.7c0.5-0.4,0.6-1.5,0.7-2.3C85.7,31.2,82.2,28.6,78.3,24.9z"/>
	<path d="M193.5,63.7c-6.9,1.5-11.1-1.3-14.7-6.1c-2.8-3.7-6.1-7.1-9.1-10.6l-1.3,0.5l2.8,15.7h-12.7c2.2-15.4,2.2-31-0.1-46.4h12
		l-1.9,16l1.3,0.5c0.6-1.2,1.4-2.4,2.2-3.5c3.5-4.1,6.6-8.8,10.8-11.7c2.7-1.8,7.3-0.8,11-1c-0.3,1.1-0.1,2.6-0.8,3.3
		c-6.5,5.9-13.2,11.6-19.8,17.3c-1.4,1.2-1.9,2,0.1,3.7c6.5,5.3,12.7,11.1,18.7,17C193.2,59.4,193,61.9,193.5,63.7z"/>
	<path d="M135.1,64.1l-0.2-3.5c-2.6-0.5-5.1-0.8-7.5-1.4c-5.8-1.4-7.5-0.7-9.5,4.8h-6.6c0.7-5.8,1-11.5,2.2-17
		c1.2-5.2,2.9-10.4,5-15.3c2-4.7,4.3-9.4,6.8-13.9c1.4-2.6,4.4-2.6,5.9,0.1c3,5.4,6.3,10.7,8.1,16.5c2.5,8.3,3.7,17,5.6,25.5
		c0.7,3.3-1.2,4-3.6,4.2C139.3,64.3,137.3,64.1,135.1,64.1z M119.7,51.3l13,1.2c0.5-8-3.6-14.8-5.1-22.2l-1-0.1L119.7,51.3z"/>
	<path d="M209.8,31.5c0-4.1,0.1-8.3,0-12.5c-0.1-2.5,0.9-3.5,3.3-3.2c1,0.1,2,0,3,0c2.4,0,3.5,0.9,3.6,3.5
		c0.1,8.1,0.1,16.3,0.8,24.4c0.5,3.3,1.7,6.4,3.5,9.2c1.9,3.1,9,1.8,10.3-1.6c3-7.8,3.2-15.9,2.1-24.2c-0.5-3.2,0.2-6.7,0.9-10
		c0.2-0.7,2.7-1.3,4.1-1.2c0.8,0,2.2,1.4,2.2,2.1c-0.1,9.1-0.2,18.3-0.7,27.4c-0.2,3.8-1,7.5-2.4,11.1c-1.2,2.8-3.6,4.9-6.5,5.7
		c-3.6,1.1-6.8,1.9-10.4,1.2C217,62.1,211,55.8,210.5,49c-0.5-5.8-0.8-11.7-1.1-17.6L209.8,31.5z"/>
	<path d="M54.8,64.9c-2.6,0-5,0.3-7.3-0.1c-1.2-0.2-2.1-1.7-3.2-2.5s-2-2.4-3.2-2.5c-3.8-0.3-7.7-0.1-11.6-0.1
		c-0.8,5.6-0.8,5.6-7.7,5.1c0.5-4.8,0.8-9.7,1.5-14.5c1.6-10.6,5.9-20.3,11.3-29.5c0.8-1.2,1.7-2.3,2.8-3.3c1.3-1.4,2.3-1.2,3.4,0.6
		c6.5,10.4,11,22,13.1,34.1C54.7,56.1,54.5,60.4,54.8,64.9z M44.5,54.5L37,32.2c-3.5,7.1-5.9,13.4-5.5,20.4L44.5,54.5z"/>
	<path d="M263.2,42.1c0.8,1.6,1.8,3.1,2.5,4.8c2.4,5.8,9.9,9.1,15.5,6.4c1.2-0.6,2.6-2.3,2.5-3.3c-0.4-1.6-1.4-3-2.9-3.9
		c-4.9-3-10.3-5.2-15-8.5c-6.4-4.5-6.5-15.2,0.6-19.5c6.4-3.9,12.9-3.1,18.4,2c2.3,2.1,3,5.6,1.2,7.2c-2.3,1.9-4.6,0.4-6.7-0.8
		c-1.4-0.9-2.8-1.9-3.9-3.1c-1.9-1.9-4.1-1.6-5.3,0.2c-0.9,1.4-2.2,3.8,0.3,5.5c4.1,2.6,8.1,5.4,12.3,7.9c7.5,4.4,10.8,11,8.7,19.3
		c-0.6,1.9-1.9,3.5-3.8,4.4c-5.9,2.6-12.6,2.8-18.7,0.7c-4.3-1.5-7.9-3.4-8.3-8c-0.4-3.7,0.6-7.4,1-11.2L263.2,42.1z"/>
	<path class="st0" d="M78.5,56.6V45.8c3-0.5,8.2,2.2,9.3,4.8c1.6,3.8,0,6-4,6.1C82.1,56.6,80.5,56.6,78.5,56.6z"/>
	<path class="st0" d="M78.3,24.9c3.9,3.7,7.4,6.4,6.8,11.5c-0.1,0.8-0.2,1.9-0.7,2.3c-1.5,1-3,1.9-4.6,2.7c-0.5-1.5-1.3-3-1.4-4.6
		C78.2,33.2,78.3,29.5,78.3,24.9z"/>
	<path class="st0" d="M119.7,51.3l7-21.1l1,0.1c1.5,7.4,5.6,14.3,5.1,22.2L119.7,51.3z"/>
	<path class="st0" d="M44.5,54.5l-12.9-1.8c-0.5-7,2-13.3,5.4-20.4L44.5,54.5z"/>
</g>
</svg>
