<svg xmlns="http://www.w3.org/2000/svg" viewBox="0 0 313.04 268.85"><defs><style>.cls-1{fill:#443418;}.cls-2{fill:#fcee21;}</style></defs><title>Asset 2</title><g id="Layer_2" data-name="Layer 2"><g id="Layer_1-2" data-name="Layer 1"><path class="cls-1" d="M279.08,89.17h34V176H294.68c-4.66,0-9.32.14-14-.06-2.48-.1-3.61.79-4.12,3.15-2.36,10.94-8.38,20.27-14,29.58-4.35,7.17-10.09,13.62-15.87,19.77-5.62,6-11.54,12-18.31,16.52A184.82,184.82,0,0,1,201,259.61c-6.66,3-14,4.61-21.08,6.41-3.78,1-7.79,1.07-11.7,1.42-6.22.55-12.44,1.28-18.68,1.39-6.58.12-13.19-.29-19.76-.73-1.55-.11-3-1.43-4.55-1.94-5.06-1.64-10.24-2.93-15.21-4.8s-10.11-3.72-14.52-6.58a234.78,234.78,0,0,1-20.48-15.29c-3.39-2.78-6.1-6.39-9.1-9.64-3.66-4-7.65-7.7-10.87-12A134.66,134.66,0,0,1,43.81,200.5c-3.6-6.79-6.34-14-9.41-21.1-.43-1-.67-2.07-1.07-3.35H0V90H32.13c5.5-10.42,9.9-20.72,16-29.84a167.48,167.48,0,0,1,21.9-26.28C77.14,27.05,85.5,21.26,94,16.16a107.6,107.6,0,0,1,22.83-9.93c11-3.5,22.39-6.26,34.12-6.21,9.91,0,19.81-.46,29.64,2.09C190,4.56,199.35,7.27,207.87,12S224.8,21.9,233,27.2c8.52,5.49,15.23,13,22,20.48a120.24,120.24,0,0,1,17.46,26C274.94,78.59,276.8,83.79,279.08,89.17ZM4.44,171.24h304V96.14H4.44Zm269.75,5H37.63c3.39,7.6,6.11,14.95,9.83,21.75a136.72,136.72,0,0,0,27,34.55,110.52,110.52,0,0,0,32.85,21.3c6.07,2.56,12.22,5.25,18.6,6.63a157.77,157.77,0,0,0,24.3,3.06,114.88,114.88,0,0,0,19.85-.71,134.41,134.41,0,0,0,18.39-3.76c5.28-1.38,10.72-2.76,15.49-5.26a177.54,177.54,0,0,0,23.8-14.46,134,134,0,0,0,20.35-18.55,141.09,141.09,0,0,0,15.46-22.06C267.61,191.81,270.5,184.18,274.19,176.26Zm-.4-87.32c-1.74-4.6-2.91-9.45-5.3-13.6-4.71-8.19-9.29-16.69-15.42-23.76-6.95-8-14.32-15.83-23.47-21.75-12.9-8.35-25.83-16.55-40.81-20.67-5.44-1.5-11.16-2-16.59-3.49C166.32,4,160,7.44,154.38,3.81c-.21-.14-.69.15-1,.23-2.82.66-5.61,1.5-8.47,1.94-4.42.67-8.92.81-13.3,1.64a106.75,106.75,0,0,0-12.36,3.31c-6.13,1.94-12.35,3.74-18.25,6.28a79.42,79.42,0,0,0-12.88,7.53A125.79,125.79,0,0,0,77.64,33c-2,1.7-3.8,3.65-5.68,5.5-3.23,3.18-6.49,6.35-9.67,9.59-.94,1-1.54,2.26-2.47,3.23-8,8.38-13.49,18.37-17.67,29.05-1,2.53-.76,5.53-1.13,8.56Z"/><path class="cls-2" d="M4.44,171.24V96.14h304v75.1Zm89.33-37-1.11.28a24.92,24.92,0,0,0,1.46-3c1.44-4.16,1.8-8.37-1.49-11.8a39.34,39.34,0,0,0-17.87-11c-5.52-1.54-6.93,0-5.69,5.73a16.06,16.06,0,0,1,.18,3.37q0,16.78,0,33.56v4.18c7.29,0,14.07.13,20.84,0,4.52-.12,8.81-5.24,7.76-9.46C96.85,142.08,95.16,138.21,93.77,134.27Zm99.71,20.92c-.44-1.84-.28-4.27-1.41-5.38-6-5.91-12.18-11.66-18.62-17.09-2-1.68-1.55-2.44-.13-3.68,6.6-5.76,13.27-11.45,19.79-17.31.69-.62.56-2.15.82-3.25-3.74.25-8.34-.78-11,1-4.29,2.92-7.34,7.69-10.84,11.74a27.29,27.29,0,0,0-2.22,3.51l-1.25-.49,1.89-16h-12a161.83,161.83,0,0,1,.06,46.41h12.68L168.38,139l1.31-.47c3.06,3.52,6.34,6.86,9.11,10.59C182.39,153.93,186.6,156.73,193.48,155.19Zm-58.34.44c2.14,0,4.15.15,6.12,0,2.4-.23,4.35-.89,3.6-4.18-1.92-8.48-3.1-17.17-5.63-25.46-1.77-5.79-5.15-11.12-8.1-16.5-1.49-2.71-4.45-2.7-5.86-.1a141.21,141.21,0,0,0-6.79,13.85,95.24,95.24,0,0,0-5,15.32c-1.2,5.48-1.46,11.17-2.16,17h6.63c2-5.49,3.68-6.28,9.5-4.84,2.4.6,4.87.93,7.52,1.42ZM209.8,123l-.35,0c.37,5.86.67,11.72,1.12,17.57.53,6.75,6.45,13.1,13.09,14.36,3.64.69,6.85-.12,10.41-1.2a9.62,9.62,0,0,0,6.5-5.65A34.5,34.5,0,0,0,243,137c.52-9.12.62-18.27.7-27.41,0-.75-1.44-2.12-2.24-2.14-1.43,0-4,.5-4.14,1.22-.7,3.25-1.35,6.73-.89,10,1.17,8.27,1,16.31-2.05,24.16-1.34,3.48-8.4,4.74-10.32,1.62a22.2,22.2,0,0,1-3.53-9.18c-.7-8.09-.76-16.25-.84-24.39,0-2.69-1.19-3.54-3.56-3.54-1,0-2,.08-3,0-2.42-.23-3.42.73-3.34,3.23C209.9,114.64,209.8,118.8,209.8,123Zm-155,33.43c-.25-4.52-.08-8.78-.78-12.88a95.18,95.18,0,0,0-13.13-34.08c-1.07-1.74-2-1.93-3.36-.58a18,18,0,0,0-2.81,3.25C29.25,121.29,25,131,23.4,141.64c-.73,4.81-1,9.68-1.54,14.52,6.93.57,6.93.57,7.74-5.05,3.82,0,7.71-.19,11.57.12,1.11.09,2.1,1.64,3.15,2.52s2,2.32,3.15,2.53C49.77,156.67,52.18,156.38,54.79,156.38Zm208.4-22.79-1.73.06c-.37,3.73-1.32,7.52-1,11.17.47,4.58,4.07,6.44,8.32,8a25.23,25.23,0,0,0,18.68-.65,7.33,7.33,0,0,0,3.75-4.4c2.1-8.31-1.11-14.86-8.66-19.29-4.2-2.46-8.2-5.25-12.29-7.9-2.54-1.65-1.24-4.1-.32-5.48,1.15-1.73,3.38-2,5.29-.17A19.72,19.72,0,0,0,279.2,118c2.08,1.18,4.44,2.73,6.73.79,1.84-1.56,1.09-5.1-1.16-7.21-5.5-5.15-11.94-5.92-18.35-2-7.08,4.29-7,15-.62,19.52,4.66,3.3,10.05,5.55,15,8.53a6.44,6.44,0,0,1,2.87,3.87c.16,1-1.31,2.76-2.47,3.32-5.59,2.7-13.13-.57-15.5-6.41C265,136.74,264,135.2,263.19,133.6Z"/><path class="cls-2" d="M274.19,176.26c-3.69,7.92-6.57,15.55-10.65,22.49a141.09,141.09,0,0,1-15.46,22.06,134,134,0,0,1-20.35,18.55,177.54,177.54,0,0,1-23.8,14.46c-4.78,2.5-10.22,3.88-15.49,5.26A134.41,134.41,0,0,1,170,262.84a114.88,114.88,0,0,1-19.85.71,157.77,157.77,0,0,1-24.3-3.06c-6.38-1.39-12.54-4.07-18.6-6.63a110.52,110.52,0,0,1-32.85-21.3,136.72,136.72,0,0,1-27-34.55c-3.72-6.8-6.44-14.15-9.83-21.75ZM82.72,212.57l.57-1.25,5.51,2.93c1.51-1.66,1.11-2.76-.77-4.07a38.65,38.65,0,0,1-5.89-5.38,26.65,26.65,0,0,1-2.65-4.1l1,1.88c-4.31,3.43-8.5,7-13,10.24-3.4,2.45-1.91,4.23.19,6.53,2.27-2.48,4.24-4.88,6.48-7s4.59-3.8,6.91-5.68a4,4,0,0,1-.85,2.55c-3.07,3.88-6.25,7.68-9.23,11.63-.48.64-.61,2.32-.16,2.76A36.86,36.86,0,0,0,77.43,229c.73.44,2.44-.72,3.69-1.14a12.56,12.56,0,0,0-1.81-2.58c-.94-.81-3.15-1.73-3.08-1.88a31.18,31.18,0,0,1,3.52-6.71c.89-1.18,2.51-2,4.09-.2.41.47,1.73.15,3.41.23Zm135.86,12.35c4.24,1.83,7.64,3.43,11.15,4.75a4.41,4.41,0,0,0,3.18-.44c.3-.16.19-2-.28-2.65q-5-7.1-10.27-14a2.88,2.88,0,0,0-2.51-.65c-.46.12-1,1.51-.82,2.14a14.78,14.78,0,0,0,1.77,3c.74,1.26,1.42,2.56,2.47,4.47-3.14-1.17-5.24-2.11-7.43-2.72a21.36,21.36,0,0,0-4.22-.34c.26,1.9-.06,4.2.9,5.62A108.82,108.82,0,0,0,221,234.53c.7.8,2,1.09,3,1.62,0-1.4.58-3.1,0-4.14C222.69,229.7,220.78,227.71,218.58,224.92Zm-77.5,37.31c1-1.48,2-2.37,2.17-3.4,1.23-6.65,2.38-13.33,3.28-20,.12-.91-1.34-2-2.07-3-.89.76-2.47,1.47-2.53,2.29-.21,3,.13,6,.18,9a22.33,22.33,0,0,1-.45,3.2c-3.28-4.42-3.23-4.41-2.21-9.2a7.06,7.06,0,0,0,0-3.72,4.08,4.08,0,0,0-2.42-2.12c-.42-.13-1.82,1.22-1.91,2-.89,7.35-1.6,14.72-2.33,22.09a5.62,5.62,0,0,0,.18,1.31l1.2.55a16.42,16.42,0,0,0,2.36-3.57c.83-2.45,1.27-5,1.85-7.42C143.47,252.88,138.87,257.59,141.08,262.23ZM202,224.57c-3.05,1.52-3.09,3.55-1.11,6.37a75.73,75.73,0,0,1,6.45,10.57c2.19,4.54,1.95,4.66,5.67,1.43l-7.19-12,2.48-1.15c2,3.16,4.14,6,5.54,9.1,1,2.34,2.44,2.76,4.12,1.6.49-.34,0-2.78-.64-3.92-2.35-4.16-5.18-8.07-7.41-12.29-2-3.76-2.59-4-4.85-1.21l.29,4.26Zm-128.2-26a32.47,32.47,0,0,0-.8-4.25c-.4-1.32-.93-3.23-1.89-3.59s-2.79.52-3.85,1.36a84.22,84.22,0,0,0-7.75,7c-1.38,1.41-3.47,3.46-3.23,4.87.65,3.77,4.56,6.8,7.41,6.84C68.42,210.86,73.8,204.82,73.78,198.6Zm24.65,35.66c-2.64,1.9-3.44,4.35-2.72,7.88.53,2.59,4.51,4.79,7.48,4.13,4-.88,4.93-2.48,4.12-6.22-.69-3.16-1.14-6.38-1.7-9.57l.86-.11,2.74,4.7c.75-2.41,1.77-3.94,1.45-5.1a8.52,8.52,0,0,0-3-4.69c-2.21-1.44-5.18-1.54-5.81,1.81-.59,3.13-.25,6.46-.14,9.69a54.22,54.22,0,0,0,.8,5.68C97.39,240.92,99.31,237,98.44,234.25ZM131,242.94c3.56-4.06-.1-6.25-1.18-8.54-.55-1.16-3.94-1.45-6-1.32-4.78.3-5.14,5.19-7.24,8.09-3.45,4.76.3,13.34,6,14.8,3.78,1,6.25-1.15,5.86-5-4.15,1.23-8.33.1-8.38-2.62a24.63,24.63,0,0,1,1.61-8.95c.42-1.11,2.78-1.66,4.37-2,.56-.14,1.55.87,2.11,1.54C129.1,240.06,129.89,241.38,131,242.94Zm41.31,14.77,2.62-1.24a12.79,12.79,0,0,1-1.55-2.46c-.65-1.82-1.74-3.82-1.48-5.57.75-4.94-.67-9.05-5-11.27a4.57,4.57,0,0,0-4,0,4.78,4.78,0,0,0-1.3,3.88c.78,5.31,1.83,10.59,3,15.84.18.83,1.25,1.47,1.92,2.19.59-.92,1.54-1.8,1.66-2.78.14-1.19-.42-2.47-.68-3.71l1.11-.53Zm70.79-46.41c-.55.83-1,1.38-1.31,2-3.16,6.11-3.15,6.11-8.13,2-.19-.16-.41-.29-.59-.47-1.38-1.39-3.3-2.53-1-4.89.63-.66.2-2.34.29-4.26l-4.5,3.81-.81-.72,3.19-4.46c-.65-.34-1.68-1.09-1.85-.93-2,1.85-4.2,3.62-5.43,5.91-.46.86,1.24,3.28,2.44,4.53,1.59,1.66,4,2.57,5.45,4.33,5.87,7.23,6.3,7.2,12.24,0C245.07,215.63,244.82,213.82,243.08,211.3ZM182.41,233c-2.92.71-5.82,1.08-8.3,2.3-.51.25.55,3.68.87,5.64.06.37,0,.76.07,1.13,1.06,4.7,2.14,9.4,3.3,14.46,3.39-.95,6.27-1.56,9-2.62.85-.33,1.2-1.9,1.78-2.91a12.92,12.92,0,0,0-3.19,0,37.37,37.37,0,0,0-4.48,1.78l-2.77-10.51c4.69-1.1,4.69-1.1,4.14-4.37l-4.59.36-.07-.75,4.26-.61Zm20.39,9.43c-.46.57-.93,1.09-1.33,1.67-3.24,4.65-6.41,4.5-9.14-.45-.42-.76-1.27-1.56-1.19-2.25.3-2.43.41-5.12,1.56-7.17,1.38-2.45,3.44-1.67,5.15.32.29.34,1.68.1,2.26-.3a2.17,2.17,0,0,0,.38-2c-.89-2.52-5.91-4.12-8.3-2.75-4,2.32-5.85,8.31-4.11,13.51,2,6,7.33,9.09,12.12,7C203.57,248.64,205,244.75,202.8,242.45Zm49.34-33.68c-1-1.59-1.58-3-2.6-3.9-3.14-2.69-6.51-5.1-9.66-7.77-.64-.54-.72-1.76-1.05-2.66,4.61-1.69.59-2.71-.25-4.66-3.32,4.15-6.72,7.54-5.7,13.34,1.91-4.87,4.13-3.89,6.58-.92a7.85,7.85,0,0,0,2.12,1.88C244.67,205.8,246.28,210.35,252.14,208.78ZM110.36,252c2.52-5.66,5.14-11.26,7.49-17,.83-2,2.36-4.6-1.79-6.37l-8.73,21.09Z"/><path class="cls-2" d="M273.79,88.95H41c.36-3,.14-6,1.13-8.56,4.18-10.69,9.63-20.67,17.67-29.05.93-1,1.53-2.27,2.47-3.23,3.18-3.24,6.44-6.4,9.67-9.59,1.88-1.85,3.67-3.81,5.68-5.5a125.79,125.79,0,0,1,10.43-8.27,79.42,79.42,0,0,1,12.88-7.53c5.89-2.53,12.11-4.34,18.25-6.28a106.75,106.75,0,0,1,12.36-3.31c4.38-.82,8.89-1,13.3-1.64,2.86-.43,5.65-1.28,8.47-1.94.36-.08.84-.37,1-.23C160,7.44,166.32,4,172.2,5.68c5.43,1.52,11.15,2,16.59,3.49,15,4.12,27.91,12.32,40.81,20.67,9.15,5.92,16.52,13.75,23.47,21.75,6.13,7.07,10.71,15.57,15.42,23.76C270.88,79.5,272,84.35,273.79,88.95ZM99.62,56.49l.89-1.08c-.5-1.39-.67-3-1.54-4.13-3.65-4.61-7.47-9.09-11.31-13.55-1.6-1.86-3.42-3.54-5.14-5.3l-.67-1.82-3.48,4.14L89.87,47.48a13.36,13.36,0,0,1-2.44-.27c-4.64-1.53-9.24-3.24-13.93-4.6-1-.3-2.54.39-3.55,1.06-.42.28-.47,1.94-.05,2.51,1.48,2,3.23,3.81,4.88,5.7L88.22,67.29l4.26-4.67c-6.77-4.36-10.2-8.32-10.57-11.17Zm29.76-38.08-1.35,1c.31,4.84.43,9.7,1,14.52.4,3.52,4.45,6,8.38,5.64a6.26,6.26,0,0,0,5.76-6.85c-.41-4.59-1.75-9.12-2.92-13.62-.21-.81-1.52-1.33-2.32-2l-1,.56c.33,4,.81,7.9.92,11.86.05,1.9,1.39,4.76-3.11,5.31-1-4.42-1.77-8.83-2.92-13.16C131.55,20.48,130.24,19.5,129.39,18.41Zm48.18,12.17c.81,2.68,1.67,5.34,2.43,8,1.2,4.26,5.25,4.75,8.2,4.57,2.2-.13,5.17-2.87,6.07-5.14,1.09-2.73.78-6.25.31-9.31a8.91,8.91,0,0,0-9.75-7.6C181.25,21.42,178.08,25.76,177.57,30.59Zm-18.24,5-4.9-6c4.4-4.43,1.06-12-6.3-14.33-3.76,6.85-1.2,13.71,0,20.79l3.3.58.46-6.75c.9,1.76,1.69,2.76,1.92,3.87C154.6,37.44,155.83,38,159.33,35.6ZM104.52,53.67c.83-1.88,1.18-3.77,2.3-4.89.85-.85,2.67-.94,4.06-1,2.8-.06,3.66-.74,2.34-3.66-2.59-5.7-7.84-8.53-12.4-12.05-1.58-1.22-2.9.05-2.81,2a45,45,0,0,0,.77,7C99.71,45.6,100.76,50.13,104.52,53.67Zm60.11-23.21c3.26,2.28,2.42,8.33,9.15,7.9-2.35-3.52-4.25-6.18-5.92-9-.51-.85-.86-2.59-.4-3.08a75,75,0,0,1,5.89-5.08c.62-.53,1.51-1.17,1.56-1.82s-.86-1.87-1.3-1.85A4.43,4.43,0,0,0,171,18.77c-1.53,1.44-2.88,3.07-4.3,4.62l-.85-.52a14.33,14.33,0,0,0,.65-2.92,7,7,0,0,0-.56-3.49,2.74,2.74,0,0,0-2.6-.31,6.26,6.26,0,0,0-1.14,3.27c-.6,5.7-1.09,11.41-1.63,17.28C164.17,38.07,164.17,38.07,164.62,30.46Zm46.84,6.18c-.38-1.41-.34-3-1-3.42-1.94-1.25-4.14-2.68-6.32-2.82-2.53-.16-2.94,2.35-2.59,4.45.46,2.75,1.39,5.43,1.75,8.18.15,1.18-.62,2.49-1,3.74-1-.88-2.44-1.57-3-2.68s-.11-2.6-.11-4c-4.13,1.07-4.93,2.2-2.82,6.71.86,1.82,4,3.08,6.36,3.56,2.57.53,3.91-1.89,3.89-4.12a28.79,28.79,0,0,0-1.41-7.51c-.58-2-1.68-3.9,1-5.69l2,4.5Zm-96.36-10,5.48,17.22c3.8.15,4.7-1.16,3.27-4.86-1.15-3-1.8-6.2-3.37-8.91-1.89-3.27-1.29-4.67,3.25-4.76l-3.65-4.47c-3.22,1.76-6.17,3.23-8.93,5-.56.36-.41,1.81-.59,2.76a27,27,0,0,0,2.81-.57C113.79,27.92,114.11,27.47,115.1,26.65ZM222,43.91a11.47,11.47,0,0,1-1,1.89c-2.65,3.21-5.25,6.48-8.07,9.55-1.89,2.06-.5,3.4.86,4.5.36.29,2.15-.64,2.82-1.42,1.18-1.38,1.94-3.12,3-4.62,1.89-2.67,3.87-5.28,6-8.15l3.14,3.66c1.59-2.65,1.81-4.47-1.25-5.78-1.49-.64-2.56-2.2-4-3a8,8,0,0,0-3.65-.85c-.29,0-1.1,1.78-.85,2.1C219.61,42.59,220.72,43,222,43.91Z"/><path class="cls-1" d="M93.77,134.27c1.39,3.95,3.08,7.82,4.09,11.86,1,4.22-3.24,9.34-7.76,9.46-6.77.17-13.54,0-20.84,0v-4.18q0-16.78,0-33.56a16.06,16.06,0,0,0-.18-3.37c-1.24-5.71.17-7.27,5.69-5.73a39.34,39.34,0,0,1,17.87,11c3.29,3.42,2.93,7.63,1.49,11.8a24.92,24.92,0,0,1-1.46,3ZM78.46,148.08c2,0,3.62,0,5.24,0,4.08-.05,5.58-2.33,4-6.09-1.06-2.55-6.25-5.23-9.27-4.75Zm-.14-31.73c0,4.62-.14,8.31.07,12,.09,1.54.89,3,1.37,4.57a41,41,0,0,0,4.63-2.74c.53-.41.62-1.52.72-2.34C85.73,122.71,82.18,120.06,78.32,116.35Z"/><path class="cls-1" d="M193.48,155.19c-6.87,1.54-11.09-1.26-14.67-6.09-2.77-3.73-6.05-7.08-9.11-10.59l-1.31.47,2.81,15.71H158.51a161.83,161.83,0,0,0-.06-46.41h12l-1.89,16,1.25.49a27.29,27.29,0,0,1,2.22-3.51c3.5-4.06,6.55-8.82,10.84-11.74,2.67-1.81,7.27-.78,11-1-.25,1.11-.13,2.63-.82,3.25-6.52,5.85-13.19,11.55-19.79,17.31-1.42,1.24-1.86,2,.13,3.68,6.44,5.43,12.62,11.18,18.62,17.09C193.2,150.92,193,153.34,193.48,155.19Z"/><path class="cls-1" d="M135.14,155.63l-.21-3.55c-2.64-.49-5.11-.82-7.52-1.42-5.82-1.44-7.49-.65-9.5,4.84h-6.63c.7-5.8,1-11.49,2.16-17a95.24,95.24,0,0,1,5-15.32,141.21,141.21,0,0,1,6.79-13.85c1.4-2.6,4.37-2.6,5.86.1,3,5.38,6.33,10.71,8.1,16.5,2.54,8.28,3.72,17,5.63,25.46.74,3.29-1.2,4-3.6,4.18C139.28,155.77,137.28,155.63,135.14,155.63Zm-15.47-12.81,13,1.2c.47-8-3.58-14.79-5.08-22.22l-1-.07Z"/><path class="cls-1" d="M209.8,123c0-4.15.1-8.31,0-12.46-.08-2.5.92-3.46,3.34-3.23,1,.1,2,0,3,0,2.36,0,3.53.85,3.56,3.54.08,8.14.14,16.29.84,24.39a22.2,22.2,0,0,0,3.53,9.18c1.92,3.12,9,1.85,10.32-1.62,3-7.85,3.23-15.88,2.05-24.16-.46-3.24.18-6.72.89-10,.16-.72,2.71-1.25,4.14-1.22.8,0,2.24,1.39,2.24,2.14-.08,9.14-.18,18.29-.7,27.41A34.5,34.5,0,0,1,240.57,148a9.62,9.62,0,0,1-6.5,5.65c-3.55,1.08-6.77,1.89-10.41,1.2-6.64-1.27-12.56-7.62-13.09-14.36-.46-5.85-.75-11.71-1.12-17.57Z"/><path class="cls-1" d="M54.79,156.38c-2.61,0-5,.28-7.32-.12-1.16-.2-2.11-1.65-3.15-2.53s-2-2.42-3.15-2.52c-3.85-.31-7.74-.12-11.57-.12-.81,5.62-.81,5.62-7.74,5.05.5-4.84.81-9.71,1.54-14.52C25,131,29.25,121.29,34.72,112.1a18,18,0,0,1,2.81-3.25c1.33-1.35,2.28-1.16,3.36.58A95.18,95.18,0,0,1,54,143.51C54.71,147.61,54.54,151.86,54.79,156.38Zm-10.3-10.45L37,123.73c-3.49,7.11-5.94,13.35-5.45,20.39Z"/><path class="cls-1" d="M263.19,133.6c.83,1.6,1.8,3.14,2.47,4.8,2.37,5.83,9.91,9.11,15.5,6.41,1.16-.56,2.63-2.35,2.47-3.32a6.44,6.44,0,0,0-2.87-3.87c-4.91-3-10.31-5.22-15-8.53-6.41-4.54-6.46-15.23.62-19.52,6.41-3.88,12.85-3.11,18.35,2,2.25,2.11,3,5.65,1.16,7.21-2.29,1.94-4.65.39-6.73-.79a19.72,19.72,0,0,1-3.93-3.13c-1.9-1.86-4.13-1.56-5.29.17-.92,1.38-2.22,3.83.32,5.48,4.08,2.65,8.09,5.44,12.29,7.9,7.55,4.42,10.76,11,8.66,19.29a7.33,7.33,0,0,1-3.75,4.4,25.23,25.23,0,0,1-18.68.65c-4.25-1.52-7.85-3.38-8.32-8-.37-3.65.58-7.44,1-11.17Z"/><path class="cls-1" d="M82.72,212.57l4.53,4.18c-1.68-.08-3,.24-3.41-.23-1.59-1.84-3.21-1-4.09.2a31.18,31.18,0,0,0-3.52,6.71c-.06.15,2.15,1.07,3.08,1.88a12.56,12.56,0,0,1,1.81,2.58c-1.26.43-3,1.59-3.69,1.14a36.86,36.86,0,0,1-6.57-5.42c-.45-.45-.33-2.12.16-2.76,3-3.95,6.17-7.74,9.23-11.63a4,4,0,0,0,.85-2.55c-2.31,1.88-4.75,3.64-6.91,5.68s-4.2,4.52-6.48,7c-2.1-2.3-3.59-4.08-.19-6.53,4.46-3.22,8.65-6.81,13-10.24l-1-1.88a26.65,26.65,0,0,0,2.65,4.1A38.65,38.65,0,0,0,88,210.18c1.88,1.32,2.27,2.41.77,4.07l-5.51-2.93Z"/><path class="cls-1" d="M218.58,224.92c2.2,2.79,4.1,4.78,5.43,7.09.6,1,0,2.74,0,4.14-1-.53-2.31-.82-3-1.62a108.82,108.82,0,0,1-8.48-10.46c-1-1.42-.64-3.72-.9-5.62a21.36,21.36,0,0,1,4.22.34c2.19.61,4.29,1.55,7.43,2.72-1.05-1.91-1.74-3.21-2.47-4.47a14.78,14.78,0,0,1-1.77-3c-.18-.62.36-2,.82-2.14a2.88,2.88,0,0,1,2.51.65q5.29,6.88,10.27,14c.47.67.58,2.49.28,2.65a4.41,4.41,0,0,1-3.18.44C226.22,228.35,222.82,226.75,218.58,224.92Z"/><path class="cls-1" d="M141.08,262.23c-2.21-4.64,2.39-9.35-2.75-12.13-.57,2.39-1,5-1.85,7.42a16.42,16.42,0,0,1-2.36,3.57l-1.2-.55a5.62,5.62,0,0,1-.18-1.31c.74-7.37,1.45-14.74,2.33-22.09.09-.78,1.49-2.13,1.91-2a4.08,4.08,0,0,1,2.42,2.12,7.06,7.06,0,0,1,0,3.72c-1,4.79-1.08,4.78,2.21,9.2a22.33,22.33,0,0,0,.45-3.2c0-3-.39-6-.18-9,.06-.82,1.65-1.53,2.53-2.29.73,1,2.19,2.14,2.07,3-.89,6.71-2,13.38-3.28,20C143.06,259.87,142.06,260.75,141.08,262.23Z"/><path class="cls-1" d="M202,224.57l3.36,2.77-.29-4.26c2.26-2.79,2.87-2.55,4.85,1.21,2.23,4.22,5.06,8.13,7.41,12.29.64,1.14,1.12,3.58.64,3.92-1.68,1.16-3.07.74-4.12-1.6-1.41-3.14-3.57-5.93-5.54-9.1L205.8,231l7.19,12c-3.73,3.23-3.48,3.12-5.67-1.43a75.73,75.73,0,0,0-6.45-10.57C198.89,228.13,198.93,226.09,202,224.57Z"/><path class="cls-1" d="M73.78,198.6c0,6.22-5.36,12.26-10.1,12.19-2.85,0-6.76-3.07-7.41-6.84-.24-1.41,1.85-3.46,3.23-4.87a84.22,84.22,0,0,1,7.75-7c1.05-.84,2.85-1.73,3.85-1.36S72.59,193,73,194.34A32.47,32.47,0,0,1,73.78,198.6Zm-3.35-3.36a95.06,95.06,0,0,0-8.22,6.54c-.8.77-.64,2.78-.45,4.15.06.41,1.88,1.09,2.58.82C68.1,205.33,70.95,199.79,70.44,195.24Z"/><path class="cls-1" d="M98.44,234.25c.87,2.77-1,6.67,4.09,8.21a54.22,54.22,0,0,1-.8-5.68c-.11-3.24-.45-6.56.14-9.69.63-3.35,3.6-3.25,5.81-1.81a8.52,8.52,0,0,1,3,4.69c.32,1.16-.7,2.69-1.45,5.1l-2.74-4.7-.86.11c.56,3.19,1,6.41,1.7,9.57.81,3.74-.16,5.34-4.12,6.22-3,.66-6.95-1.54-7.48-4.13C95,238.61,95.79,236.15,98.44,234.25Z"/><path class="cls-1" d="M131,242.94c-1.08-1.56-1.88-2.88-2.85-4-.56-.67-1.55-1.68-2.11-1.54-1.58.39-3.95.94-4.37,2a24.63,24.63,0,0,0-1.61,8.95c0,2.72,4.23,3.85,8.38,2.62.39,3.86-2.08,6-5.86,5-5.7-1.46-9.45-10-6-14.8,2.1-2.9,2.45-7.78,7.24-8.09,2.06-.13,5.45.16,6,1.32C130.88,236.69,134.54,238.88,131,242.94Z"/><path class="cls-1" d="M172.29,257.71l-3.75-5.62-1.11.53c.26,1.24.83,2.52.68,3.71-.12,1-1.08,1.86-1.66,2.78-.66-.73-1.74-1.36-1.92-2.19-1.12-5.25-2.17-10.53-3-15.84a4.78,4.78,0,0,1,1.3-3.88,4.57,4.57,0,0,1,4,0c4.33,2.22,5.75,6.32,5,11.27-.27,1.75.83,3.74,1.48,5.57a12.79,12.79,0,0,0,1.55,2.46Zm-5.67-10,1.41-.14c2.35-2.85-.17-4.76-2.25-6.79Z"/><path class="cls-1" d="M243.08,211.3c1.74,2.52,2,4.33,0,6.77-5.95,7.22-6.37,7.26-12.24,0-1.43-1.76-3.86-2.67-5.45-4.33-1.2-1.25-2.9-3.67-2.44-4.53,1.23-2.29,3.47-4.05,5.43-5.91.17-.16,1.2.59,1.85.93L227,208.71l.81.72,4.5-3.81c-.09,1.92.35,3.61-.29,4.26-2.28,2.36-.36,3.5,1,4.89.18.18.4.31.59.47,5,4.15,5,4.15,8.13-2C242.09,212.67,242.53,212.13,243.08,211.3Z"/><path class="cls-1" d="M182.41,233V237l-4.26.61.07.75,4.59-.36c.55,3.27.55,3.27-4.14,4.37l2.77,10.51a37.37,37.37,0,0,1,4.48-1.78,12.92,12.92,0,0,1,3.19,0c-.58,1-.94,2.57-1.78,2.91-2.71,1.07-5.59,1.68-9,2.62-1.16-5.06-2.24-9.76-3.3-14.46-.08-.36,0-.76-.07-1.13-.32-2-1.38-5.39-.87-5.64C176.6,234.1,179.5,233.74,182.41,233Z"/><path class="cls-1" d="M202.8,242.45c2.2,2.29.77,6.18-2.6,7.63-4.79,2.07-10.11-1-12.12-7-1.74-5.2.08-11.19,4.11-13.51,2.39-1.38,7.41.23,8.3,2.75a2.17,2.17,0,0,1-.38,2c-.58.4-2,.64-2.26.3-1.71-2-3.77-2.78-5.15-.32-1.15,2-1.26,4.73-1.56,7.17-.09.69.77,1.5,1.19,2.25,2.73,4.95,5.9,5.1,9.14.45C201.87,243.55,202.35,243,202.8,242.45Z"/><path class="cls-1" d="M252.14,208.78c-5.86,1.58-7.47-3-10.55-4.7a7.85,7.85,0,0,1-2.12-1.88c-2.45-3-4.68-4-6.58.92-1-5.8,2.38-9.19,5.7-13.34.84,2,4.86,3,.25,4.66.34.9.41,2.12,1.05,2.66,3.15,2.67,6.52,5.08,9.66,7.77C250.56,205.75,251.11,207.18,252.14,208.78Z"/><path class="cls-1" d="M110.36,252l-3-2.25,8.73-21.09c4.14,1.77,2.62,4.34,1.79,6.37C115.51,240.72,112.88,246.32,110.36,252Z"/><path class="cls-1" d="M99.62,56.49l-17.72-5c.36,2.85,3.8,6.81,10.57,11.17l-4.26,4.67L74.77,51.88c-1.65-1.89-3.4-3.69-4.88-5.7-.42-.57-.37-2.24.05-2.51,1-.66,2.53-1.35,3.55-1.06,4.69,1.35,9.29,3.06,13.93,4.6a13.36,13.36,0,0,0,2.44.27L78.38,34.75l3.48-4.14.67,1.82c1.72,1.76,3.54,3.44,5.14,5.3,3.84,4.46,7.66,8.94,11.31,13.55.87,1.1,1,2.74,1.54,4.13Z"/><path class="cls-1" d="M129.39,18.41c.86,1.09,2.16,2.06,2.49,3.3,1.15,4.32,2,8.74,2.92,13.16,4.5-.55,3.16-3.41,3.11-5.31-.11-4-.59-7.9-.92-11.86l1-.56c.8.65,2.11,1.18,2.32,2,1.16,4.5,2.51,9,2.92,13.62a6.26,6.26,0,0,1-5.76,6.85c-3.93.39-8-2.12-8.38-5.64-.55-4.81-.68-9.68-1-14.52Z"/><path class="cls-1" d="M177.57,30.59c.51-4.82,3.68-9.17,7.27-9.44a8.91,8.91,0,0,1,9.75,7.6c.47,3.06.77,6.58-.31,9.31-.9,2.27-3.87,5-6.07,5.14-3,.17-7-.31-8.2-4.57C179.24,35.93,178.38,33.26,177.57,30.59Zm14.35,3.9c-1.67-3-2.18-5.81-3.94-8.29-.61-.86-2.61-1.65-3.39-1.27-1.19.58-2.67,2.26-2.59,3.38a31.92,31.92,0,0,0,1.93,8.12c.83,2.37,2.65,4.51,5.27,3.38C190.66,39.18,190.5,36.77,191.92,34.49Z"/><path class="cls-1" d="M159.33,35.6c-3.5,2.35-4.73,1.83-5.49-1.79-.24-1.11-1-2.11-1.92-3.87l-.46,6.75-3.3-.58c-1.21-7.08-3.77-13.95,0-20.79,7.36,2.36,10.69,9.9,6.3,14.33Z"/><path class="cls-1" d="M104.52,53.67c-3.75-3.54-4.8-8.07-5.74-12.6a45,45,0,0,1-.77-7c-.09-1.93,1.23-3.21,2.81-2,4.57,3.53,9.82,6.36,12.4,12.05,1.32,2.91.47,3.6-2.34,3.66-1.39,0-3.22.12-4.06,1C105.7,49.9,105.34,51.79,104.52,53.67ZM102.8,37.75l-1.45.68,2.52,8.63,3.86-2.57Z"/><path class="cls-1" d="M164.62,30.46c-.45,7.61-.45,7.61-4,6.24.54-5.87,1-11.58,1.63-17.28a6.26,6.26,0,0,1,1.14-3.27,2.74,2.74,0,0,1,2.6.31,7,7,0,0,1,.56,3.49,14.33,14.33,0,0,1-.65,2.92l.85.52c1.42-1.55,2.77-3.18,4.3-4.62a4.43,4.43,0,0,1,2.58-1.23c.44,0,1.35,1.23,1.3,1.85s-.94,1.29-1.56,1.82a75,75,0,0,0-5.89,5.08c-.46.49-.11,2.23.4,3.08,1.66,2.81,3.57,5.47,5.92,9C167,38.79,167.88,32.74,164.62,30.46Z"/><path class="cls-1" d="M211.46,36.64l-3.18.84-2-4.5c-2.68,1.79-1.58,3.68-1,5.69a28.79,28.79,0,0,1,1.41,7.51c0,2.23-1.32,4.65-3.89,4.12-2.33-.48-5.5-1.73-6.36-3.56-2.11-4.5-1.31-5.64,2.82-6.71,0,1.45-.4,3,.11,4s1.93,1.81,3,2.68c.35-1.25,1.13-2.55,1-3.74-.36-2.76-1.29-5.43-1.75-8.18-.35-2.1.06-4.61,2.59-4.45,2.18.14,4.37,1.58,6.32,2.82C211.12,33.66,211.07,35.24,211.46,36.64Z"/><path class="cls-1" d="M115.1,26.65c-1,.82-1.31,1.27-1.73,1.4a27,27,0,0,1-2.81.57c.18-.95,0-2.41.59-2.76,2.76-1.77,5.71-3.24,8.93-5l3.65,4.47c-4.54.09-5.14,1.49-3.25,4.76C122,32.8,122.7,36,123.85,39c1.43,3.71.53,5-3.27,4.86Z"/><path class="cls-1" d="M222,43.91c-1.32-.86-2.42-1.31-3.06-2.13-.25-.32.55-2.11.85-2.1a8,8,0,0,1,3.65.85c1.45.82,2.52,2.38,4,3,3.06,1.31,2.84,3.13,1.25,5.78l-3.14-3.66c-2.12,2.87-4.1,5.48-6,8.15-1.06,1.5-1.82,3.24-3,4.62-.67.78-2.46,1.71-2.82,1.42-1.36-1.1-2.74-2.44-.86-4.5,2.81-3.07,5.42-6.33,8.07-9.55A11.47,11.47,0,0,0,222,43.91Z"/><path class="cls-2" d="M78.46,148.08V137.24c3-.48,8.21,2.2,9.27,4.75,1.55,3.76,0,6-4,6.09C82.08,148.1,80.47,148.08,78.46,148.08Z"/><path class="cls-2" d="M78.32,116.35c3.86,3.71,7.41,6.36,6.78,11.47-.1.82-.19,1.94-.72,2.34a41,41,0,0,1-4.63,2.74c-.48-1.52-1.28-3-1.37-4.57C78.18,124.66,78.32,121,78.32,116.35Z"/><path class="cls-2" d="M119.66,142.81l7-21.09,1,.07c1.49,7.43,5.55,14.25,5.08,22.22Z"/><path class="cls-2" d="M44.49,145.94l-12.9-1.81c-.49-7,2-13.29,5.45-20.39Z"/><path class="cls-2" d="M70.44,195.24c.51,4.55-2.34,10.09-6.09,11.51-.7.27-2.53-.41-2.58-.82-.19-1.38-.34-3.38.45-4.15A95.06,95.06,0,0,1,70.44,195.24Z"/><path class="cls-2" d="M166.62,247.75l-.84-6.93c2.08,2,4.6,3.95,2.25,6.79Z"/><path class="cls-2" d="M191.92,34.49c.18,1.07-1.26,4.69-2.72,5.32-2.62,1.13-4.45-1-5.27-3.38A31.92,31.92,0,0,1,182,28.3c-.08-1.12,1.41-2.8,2.59-3.38.78-.38,2.78.41,3.39,1.27A33.27,33.27,0,0,1,191.92,34.49Z"/><path class="cls-2" d="M102.8,37.75l4.94,6.74-3.86,2.57-2.52-8.63Z"/><path class="cls-2" d="M148.82,19.59c0,1.24-.78,3.72,0,5s3.1,1.24,3.1,0,0-5-.78-5C149.6,18.35,148.82,19.59,148.82,19.59Z"/></g></g></svg>