<svg id="Layer_1" data-name="Layer 1" xmlns="http://www.w3.org/2000/svg" viewBox="0 0 1920 1080"><defs><style>.cls-1{fill:#81d4fa;}.cls-2{font-size:121.53px;font-family:CurlzMT, Curlz MT;}.cls-3{letter-spacing:-0.02em;}.cls-4{letter-spacing:0em;}.cls-5{letter-spacing:-0.01em;}.cls-6{fill:#c5e1a5;}.cls-7{fill:#8d6e63;}.cls-8{fill:#338a3e;}.cls-9{fill:#66bb6a;}.cls-10{fill:#fff;}.cls-11{fill:#fcee21;}.cls-12{opacity:0.75;}</style></defs><title>Artboard 1</title><rect id="Himmel" class="cls-1" x="1" width="1921" height="1081"/><text class="cls-2" transform="translate(60.73 631.36)"><tspan class="cls-3">M</tspan><tspan class="cls-4" x="98.92" y="0">ehr als ein Bio-La</tspan><tspan class="cls-5" x="900.53" y="0">d</tspan><tspan x="952.81" y="0">en!</tspan></text><path id="BodenHinten" class="cls-6" d="M2,741c544,51,904,66,1099,30,466-89,401-150,612-81s207,69,207,69v321H0Z"/><g id="Baum"><path id="Baumstamm" class="cls-7" d="M1318,908s11-1,28.25-41.07,0-182.19,0-182.19h61.25s-11.78,155.49,0,191.61c3.93,14.14,9.42,24.34,26.7,37.69s16.8,13,16.8,13A869,869,0,0,1,1318,908Z"/><g id="Baumkrone"><circle class="cls-8" cx="1282.64" cy="607" r="62.04"/><circle class="cls-8" cx="1317.19" cy="670.61" r="64.39"/><circle class="cls-8" cx="1437.34" cy="654.9" r="65.18"/><circle class="cls-8" cx="1347.82" cy="567.73" r="58.9"/><circle class="cls-8" cx="1394.94" cy="624.27" r="56.54"/><circle class="cls-8" cx="1411.03" cy="531.22" r="63.22"/><circle class="cls-8" cx="1441.27" cy="600.71" r="61.25"/><circle class="cls-8" cx="1318.76" cy="529.25" r="61.25"/><circle class="cls-8" cx="1472.68" cy="581.08" r="68.32"/></g></g><path id="BodenVorne" class="cls-9" d="M2,868c530,89,848-98,1069-29s363,106,486,80,315-96,365-70v231H2Z"/><path id="WolkeLinks" class="cls-10" d="M207.47,113.83c0-30.74,126.26-34.89,121.4-2.49C381.68,86.83,439.35,84.75,457.56,108c51-2.08,31,31.15,3,33.64,60.09,10.38,5.46,53.17-35.21,30.74,18.82,36.14-18.62,67.79-80.73,37C288.81,238.85,209.9,216,222,183.61c-81.95.83-60.7-45.27-38.85-45.69-36.42-13.29-1.21-49,24.28-24.09"/><path id="WolkeRechts" class="cls-10" d="M1067.45,277.4c34.2,32.76-58.52,58.45-102.51,8.87-10.06,22.63-82.14,36.06-90-11.22-21.07,55.88-106.9,27.62-78.37,8.47-63.12,1.81-77.06-28.22-42.49-30.39-74.39-9.05-6.76-46.36,43.58-26.8-23.29-31.51,23.05-59.11,99.94-32.23,69.13-25.71,166.82-5.79,151.79,22.45,101.44-.72,75.14,39.47,48.09,39.84,45.09,11.59,1.5,42.73-30.06,21"/><g id="Logo"><path d="M1830.5,175.17h48.62V299.51h-26.28c-6.67,0-13.35.2-20-.08-3.54-.15-5.17,1.14-5.89,4.51-3.38,15.66-12,29-20.08,42.34-6.23,10.26-14.45,19.49-22.72,28.3-8,8.57-16.51,17.18-26.21,23.65-12.27,8.18-25.66,14.91-39.16,20.93-9.53,4.25-20,6.59-30.17,9.17-5.41,1.37-11.15,1.54-16.75,2-8.9.79-17.81,1.83-26.73,2-9.42.17-18.87-.41-28.29-1-2.22-.15-4.27-2.05-6.52-2.78-7.24-2.35-14.66-4.2-21.77-6.88s-14.47-5.32-20.78-9.42a336.08,336.08,0,0,1-29.31-21.89c-4.86-4-8.74-9.15-13-13.8-5.24-5.69-11-11-15.57-17.19a192.77,192.77,0,0,1-16.12-24.79c-5.16-9.71-9.07-20.09-13.48-30.2-.62-1.42-1-3-1.53-4.79H1431V176.42h46c7.88-14.92,14.18-29.66,23-42.72a239.75,239.75,0,0,1,31.34-37.62c10.12-9.85,22.08-18.14,34.23-25.44a154,154,0,0,1,32.69-14.22c15.81-5,32-9,48.85-8.89,14.19.06,28.36-.65,42.42,3,13.53,3.51,26.87,7.39,39.07,14.18s24.23,14.15,36,21.74c12.19,7.85,21.8,18.57,31.44,29.32A172.13,172.13,0,0,1,1821,153C1824.58,160,1827.24,167.46,1830.5,175.17ZM1437.35,292.64h435.23V185.14H1437.35Zm386.15,7.19H1484.87c4.86,10.87,8.75,21.4,14.08,31.14a195.72,195.72,0,0,0,38.6,49.46,158.22,158.22,0,0,0,47,30.49c8.68,3.67,17.49,7.51,26.63,9.5A225.84,225.84,0,0,0,1646,424.8a164.46,164.46,0,0,0,28.42-1,192.4,192.4,0,0,0,26.33-5.38c7.55-2,15.34-3.95,22.18-7.54,11.76-6.16,23.45-12.78,34.07-20.7a191.8,191.8,0,0,0,29.14-26.56c8.46-9.59,15.64-20.51,22.14-31.58C1814.09,322.1,1818.23,311.17,1823.5,299.83Zm-.57-125c-2.5-6.58-4.17-13.53-7.58-19.46-6.74-11.72-13.3-23.89-22.08-34-9.94-11.46-20.5-22.66-33.59-31.14-18.47-12-37-23.69-58.42-29.59-7.79-2.14-16-2.82-23.75-5C1669.08,53.29,1660,58.17,1652,53c-.3-.2-1,.21-1.5.33-4,.95-8,2.15-12.12,2.77-6.32,1-12.77,1.16-19,2.34a152.81,152.81,0,0,0-17.7,4.74c-8.78,2.78-17.69,5.36-26.12,9-6.5,2.79-12.55,6.79-18.44,10.78a180.06,180.06,0,0,0-14.93,11.84c-2.88,2.43-5.44,5.23-8.13,7.88-4.63,4.56-9.3,9.08-13.85,13.72-1.35,1.38-2.2,3.24-3.54,4.63-11.51,12-19.31,26.29-25.3,41.59-1.42,3.62-1.09,7.92-1.61,12.26Z"/><path class="cls-11" d="M1437.35,292.64V185.14h435.23v107.5Zm127.88-52.92-1.59.39a35.67,35.67,0,0,0,2.09-4.23c2.06-6,2.57-12-2.14-16.89A56.32,56.32,0,0,0,1538,203.26c-7.9-2.2-9.92,0-8.14,8.2a23,23,0,0,1,.26,4.82q0,24,0,48v6c10.44,0,20.14.18,29.83-.06,6.48-.17,12.61-7.5,11.11-13.54C1569.64,250.91,1567.22,245.37,1565.23,239.72ZM1708,269.67c-.63-2.64-.39-6.11-2-7.71-8.59-8.46-17.44-16.69-26.65-24.46-2.85-2.41-2.22-3.49-.19-5.26,9.45-8.25,19-16.39,28.33-24.77,1-.89.81-3.07,1.17-4.66-5.35.35-11.94-1.12-15.76,1.48-6.15,4.18-10.51,11-15.52,16.81a39.07,39.07,0,0,0-3.18,5l-1.79-.7,2.71-22.9h-17.25a231.66,231.66,0,0,1,.09,66.43h18.15l-4-22.49,1.88-.67c4.37,5,9.08,9.82,13,15.17C1692.09,267.86,1698.12,271.88,1708,269.67Zm-83.51.63c3.07,0,5.94.21,8.76-.05,3.44-.32,6.22-1.28,5.16-6-2.74-12.14-4.43-24.58-8.06-36.44-2.54-8.29-7.37-15.92-11.6-23.61-2.13-3.87-6.38-3.87-8.39-.15a202.14,202.14,0,0,0-9.72,19.82,136.33,136.33,0,0,0-7.21,21.93c-1.72,7.85-2.09,16-3.09,24.3h9.49c2.87-7.86,5.27-9,13.6-6.93,3.44.85,7,1.33,10.76,2Zm106.88-46.77-.5,0c.53,8.38,1,16.77,1.61,25.14.75,9.66,9.23,18.75,18.74,20.56,5.21,1,9.81-.17,14.9-1.72a13.78,13.78,0,0,0,9.31-8.09,49.39,49.39,0,0,0,3.45-15.86c.75-13.06.89-26.16,1-39.24,0-1.07-2.06-3-3.2-3.06-2.05,0-5.7.72-5.92,1.75-1,4.65-1.93,9.63-1.27,14.27,1.68,11.84,1.41,23.35-2.94,34.58-1.92,5-12,6.79-14.77,2.32-2.43-4-4.66-8.62-5.05-13.14-1-11.59-1.09-23.27-1.21-34.91,0-3.85-1.71-5.07-5.09-5.06-1.44,0-2.89.11-4.32,0-3.46-.33-4.9,1-4.78,4.62C1731.47,211.63,1731.33,217.58,1731.33,223.53Zm-221.9,47.85c-.36-6.48-.11-12.56-1.12-18.44a136.25,136.25,0,0,0-18.79-48.79c-1.53-2.49-2.89-2.76-4.8-.83a25.75,25.75,0,0,0-4,4.66c-7.83,13.16-13.87,27-16.2,42.28-1,6.88-1.49,13.86-2.2,20.78,9.92.81,9.92.81,11.08-7.23,5.47,0,11-.28,16.56.17,1.59.13,3,2.34,4.51,3.6s2.85,3.32,4.51,3.62C1502.24,271.79,1505.69,271.38,1509.43,271.38Zm298.33-32.62-2.48.09c-.53,5.34-1.9,10.76-1.36,16,.67,6.55,5.83,9.22,11.91,11.39,9.27,3.31,18.07,2.59,26.73-.93a10.49,10.49,0,0,0,5.37-6.3c3-11.9-1.59-21.28-12.4-27.61-6-3.52-11.74-7.51-17.59-11.3-3.64-2.36-1.77-5.88-.46-7.85,1.65-2.48,4.84-2.91,7.57-.25a28.23,28.23,0,0,0,5.62,4.48c3,1.69,6.36,3.92,9.64,1.14,2.64-2.23,1.57-7.31-1.66-10.33-7.87-7.37-17.09-8.47-26.26-2.91-10.13,6.14-10.06,21.44-.89,27.94,6.67,4.73,14.39,7.95,21.42,12.2A9.22,9.22,0,0,1,1837,250c.23,1.4-1.88,4-3.54,4.76-8,3.87-18.8-.82-22.19-9.17C1810.33,243.26,1809,241,1807.76,238.76Z"/><path class="cls-11" d="M1823.5,299.83c-5.28,11.33-9.41,22.26-15.24,32.2-6.5,11.07-13.67,22-22.14,31.58A191.8,191.8,0,0,1,1757,390.17c-10.62,7.91-22.31,14.53-34.07,20.7-6.84,3.59-14.63,5.56-22.18,7.54a192.4,192.4,0,0,1-26.33,5.38,164.46,164.46,0,0,1-28.42,1,225.84,225.84,0,0,1-34.79-4.38c-9.14-2-17.95-5.83-26.63-9.5a158.22,158.22,0,0,1-47-30.49,195.72,195.72,0,0,1-38.6-49.46c-5.33-9.74-9.22-20.26-14.08-31.14Zm-274.09,52,.81-1.79,7.89,4.2c2.16-2.38,1.59-3.94-1.1-5.83a55.33,55.33,0,0,1-8.43-7.7c-1.57-1.68-2.55-3.9-3.8-5.87l1.44,2.68c-6.17,4.91-12.17,10-18.56,14.65-4.86,3.51-2.73,6.06.28,9.35,3.26-3.56,6.07-7,9.27-10s6.57-5.44,9.89-8.14a5.66,5.66,0,0,1-1.22,3.65c-4.39,5.56-8.95,11-13.22,16.64-.69.92-.87,3.32-.22,4a52.76,52.76,0,0,0,9.4,7.76c1,.64,3.49-1,5.29-1.64a18,18,0,0,0-2.59-3.69c-1.34-1.16-4.5-2.48-4.41-2.7a44.64,44.64,0,0,1,5-9.6c1.27-1.69,3.59-2.92,5.86-.28.58.67,2.48.22,4.88.34Zm194.49,17.69c6.06,2.62,10.94,4.91,16,6.79a6.32,6.32,0,0,0,4.55-.62c.44-.22.28-2.83-.4-3.79q-7.14-10.17-14.71-20a4.12,4.12,0,0,0-3.59-.93c-.65.17-1.43,2.17-1.17,3.06.44,1.53,1.7,2.8,2.54,4.23,1.06,1.81,2,3.66,3.54,6.4-4.5-1.68-7.5-3-10.64-3.89-1.91-.53-4-.35-6-.49.38,2.72-.09,6,1.29,8a155.77,155.77,0,0,0,12.14,15c1,1.15,2.85,1.57,4.31,2.32,0-2,.84-4.43,0-5.92C1749.78,376.33,1747,373.49,1743.9,369.49ZM1633,422.9c1.4-2.12,2.83-3.39,3.1-4.86,1.76-9.53,3.41-19.08,4.69-28.68.17-1.3-1.92-2.9-3-4.36-1.27,1.09-3.54,2.1-3.62,3.27-.3,4.24.19,8.54.26,12.82a32,32,0,0,1-.65,4.59c-4.7-6.33-4.63-6.32-3.16-13.17a10.1,10.1,0,0,0,0-5.33,5.84,5.84,0,0,0-3.46-3c-.61-.18-2.61,1.74-2.74,2.86-1.27,10.52-2.29,21.07-3.34,31.61a8,8,0,0,0,.25,1.87l1.72.79c1.16-1.69,2.75-3.24,3.38-5.11,1.19-3.51,1.82-7.2,2.64-10.62C1636.38,409.51,1629.8,416.26,1633,422.9ZM1720.14,369c-4.37,2.18-4.43,5.09-1.59,9.12a108.41,108.41,0,0,1,9.23,15.13c3.13,6.5,2.79,6.67,8.12,2l-10.3-17.15,3.55-1.65c2.83,4.53,5.92,8.53,7.94,13,1.5,3.35,3.49,3.94,5.89,2.28.7-.48,0-4-.91-5.62-3.37-6-7.41-11.55-10.6-17.59-2.84-5.38-3.71-5.73-6.94-1.73l.42,6.1Zm-183.52-37.18a46.48,46.48,0,0,0-1.14-6.09c-.57-1.89-1.34-4.62-2.7-5.13s-4,.75-5.5,1.95a120.56,120.56,0,0,0-11.1,10c-2,2-5,4.95-4.62,7,.93,5.4,6.53,9.73,10.61,9.79C1528.94,349.36,1536.64,340.71,1536.62,331.81Zm35.29,51c-3.79,2.72-4.92,6.23-3.89,11.28.76,3.71,6.46,6.86,10.7,5.91,5.66-1.26,7.06-3.55,5.9-8.91-1-4.53-1.63-9.13-2.43-13.7l1.23-.15,3.92,6.73c1.07-3.45,2.53-5.64,2.08-7.31-.68-2.49-2.22-5.36-4.29-6.71-3.17-2.06-7.41-2.21-8.32,2.59-.84,4.48-.35,9.25-.2,13.88a77.62,77.62,0,0,0,1.15,8.13C1570.41,392.4,1573.17,386.81,1571.91,382.85Zm46.58,12.43c5.1-5.81-.14-9-1.69-12.22-.79-1.66-5.64-2.08-8.59-1.89-6.85.44-7.36,7.42-10.36,11.58-4.93,6.82.42,19.1,8.59,21.19,5.41,1.38,9-1.64,8.39-7.16-5.94,1.76-11.93.14-12-3.75a35.26,35.26,0,0,1,2.3-12.81c.6-1.58,4-2.38,6.25-2.93.8-.19,2.22,1.24,3,2.21C1615.81,391.17,1616.94,393,1618.49,395.28Zm59.14,21.15,3.75-1.77a18.31,18.31,0,0,1-2.22-3.52c-.92-2.61-2.49-5.47-2.11-8,1.07-7.08-1-13-7.16-16.13-1.58-.81-4.48-.91-5.73,0s-2.12,3.75-1.85,5.55c1.11,7.6,2.61,15.16,4.22,22.67.25,1.19,1.8,2.1,2.74,3.14.84-1.32,2.21-2.58,2.38-4,.2-1.71-.61-3.53-1-5.31l1.6-.76ZM1779,350c-.79,1.19-1.42,2-1.87,2.84-4.52,8.74-4.51,8.74-11.63,2.8-.27-.23-.59-.41-.84-.67-2-2-4.73-3.62-1.46-7,.91-.94.28-3.35.41-6.1l-6.44,5.46-1.16-1,4.57-6.38c-.93-.48-2.4-1.56-2.65-1.33-2.8,2.65-6,5.17-7.77,8.45-.66,1.23,1.77,4.7,3.49,6.49,2.28,2.38,5.76,3.68,7.8,6.2,8.41,10.35,9,10.3,17.53,0C1781.82,356.19,1781.46,353.59,1779,350Zm-86.85,31.11c-4.17,1-8.32,1.54-11.88,3.29-.73.36.78,5.27,1.24,8.08.09.53,0,1.09.11,1.61,1.52,6.73,3.07,13.46,4.72,20.7,4.85-1.35,9-2.23,12.85-3.76,1.21-.48,1.72-2.72,2.55-4.16a18.49,18.49,0,0,0-4.57,0,53.5,53.5,0,0,0-6.42,2.55l-4-15c6.72-1.57,6.72-1.57,5.93-6.25l-6.57.51-.1-1.07,6.1-.88Zm29.19,13.5c-.65.82-1.33,1.57-1.9,2.39-4.64,6.66-9.18,6.44-13.09-.64-.6-1.08-1.82-2.24-1.7-3.23.43-3.49.59-7.33,2.23-10.26,2-3.51,4.92-2.39,7.37.46.42.49,2.41.15,3.24-.43a3.11,3.11,0,0,0,.54-2.82c-1.27-3.61-8.46-5.9-11.88-3.94-5.77,3.32-8.38,11.89-5.88,19.34,2.88,8.6,10.5,13,17.35,10C1722.41,403.44,1724.47,397.87,1721.31,394.59Zm70.63-48.21c-1.48-2.28-2.26-4.33-3.72-5.58-4.49-3.85-9.31-7.3-13.82-11.12-.92-.78-1-2.51-1.51-3.81,6.6-2.41.85-3.88-.35-6.68-4.75,5.93-9.61,10.79-8.16,19.1,2.73-7,5.91-5.57,9.43-1.31a11.24,11.24,0,0,0,3,2.68C1781.25,342.13,1783.55,348.64,1791.94,346.38Zm-203,61.84c3.61-8.1,7.36-16.11,10.72-24.3,1.19-2.9,3.38-6.58-2.56-9.11L1584.65,405Z"/><path class="cls-11" d="M1822.93,174.84H1489.71c.52-4.34.2-8.64,1.61-12.26,6-15.3,13.78-29.59,25.3-41.59,1.34-1.39,2.19-3.25,3.54-4.63,4.55-4.64,9.22-9.16,13.85-13.72,2.69-2.65,5.26-5.45,8.13-7.88a180.06,180.06,0,0,1,14.93-11.84c5.89-4,11.94-8,18.44-10.78,8.44-3.63,17.34-6.21,26.12-9a152.81,152.81,0,0,1,17.7-4.74c6.27-1.18,12.72-1.38,19-2.34,4.09-.62,8.09-1.83,12.12-2.77.51-.12,1.2-.53,1.5-.33,8,5.19,17.09.31,25.51,2.67,7.77,2.18,16,2.86,23.75,5,21.44,5.89,40,17.63,58.42,29.59,13.09,8.48,23.65,19.68,33.59,31.14,8.78,10.12,15.33,22.29,22.08,34C1818.76,161.31,1820.43,168.26,1822.93,174.84Zm-249.31-46.46,1.27-1.54c-.71-2-1-4.34-2.21-5.91-5.23-6.6-10.69-13-16.19-19.39-2.3-2.66-4.89-5.06-7.36-7.58l-1-2.61-5,5.92,16.44,18.22a19.13,19.13,0,0,1-3.49-.38c-6.65-2.2-13.22-4.64-19.94-6.58-1.47-.43-3.64.56-5.09,1.51-.6.39-.67,2.78-.07,3.6,2.12,2.88,4.63,5.46,7,8.16l19.25,22.06,6.09-6.68c-9.7-6.24-14.61-11.91-15.13-16Zm42.61-54.51-1.94,1.47c.44,6.93.62,13.89,1.41,20.78.58,5,6.37,8.63,12,8.08a9,9,0,0,0,8.25-9.8c-.58-6.58-2.51-13.06-4.17-19.5-.3-1.16-2.17-1.91-3.31-2.84l-1.36.8c.47,5.66,1.17,11.31,1.32,17,.08,2.73,2,6.81-4.45,7.6-1.36-6.32-2.53-12.64-4.18-18.83C1619.31,76.83,1617.44,75.43,1616.22,73.87Zm69,17.43c1.16,3.83,2.39,7.65,3.48,11.5,1.72,6.09,7.52,6.79,11.74,6.54,3.14-.19,7.4-4.11,8.69-7.36,1.56-3.91,1.12-8.95.45-13.33a12.75,12.75,0,0,0-14-10.88C1690.46,78.18,1685.92,84.4,1685.19,91.3Zm-26.11,7.18-7-8.53c6.3-6.34,1.52-17.14-9-20.52-5.38,9.8-1.72,19.63,0,29.77l4.72.83.66-9.66c1.28,2.52,2.42,3.94,2.75,5.54C1652.32,101.1,1654.07,101.85,1659.09,98.48Zm-78.47,25.86c1.18-2.69,1.69-5.4,3.3-7,1.21-1.21,3.82-1.35,5.81-1.39,4-.08,5.24-1.07,3.34-5.24-3.7-8.16-11.22-12.21-17.75-17.26-2.26-1.75-4.15.08-4,2.84a64.44,64.44,0,0,0,1.1,10C1573.74,112.79,1575.24,119.28,1580.62,124.34Zm86-33.22c4.67,3.27,3.46,11.93,13.1,11.3-3.36-5-6.09-8.85-8.47-12.87-.72-1.22-1.24-3.7-.57-4.41,2.54-2.68,5.62-4.85,8.44-7.27.89-.76,2.16-1.68,2.24-2.6s-1.23-2.68-1.86-2.65a6.34,6.34,0,0,0-3.7,1.76c-2.18,2.06-4.12,4.39-6.15,6.61l-1.21-.74a20.51,20.51,0,0,0,.92-4.18,10,10,0,0,0-.8-5c-.4-.7-3.24-1-3.72-.44a9,9,0,0,0-1.64,4.69c-.86,8.16-1.56,16.34-2.33,24.73C1666,102,1666,102,1666.66,91.12Zm67,8.85c-.55-2-.48-4.27-1.46-4.9-2.78-1.78-5.93-3.84-9-4-3.62-.23-4.21,3.37-3.71,6.37.66,3.94,2,7.77,2.51,11.71.22,1.69-.89,3.56-1.4,5.35-1.46-1.26-3.49-2.25-4.23-3.84s-.16-3.73-.16-5.8c-5.91,1.53-7.06,3.16-4,9.6,1.23,2.61,5.76,4.4,9.1,5.09,3.68.76,5.6-2.7,5.56-5.89a41.22,41.22,0,0,0-2-10.75c-.83-2.88-2.4-5.59,1.43-8.15l2.92,6.45ZM1595.77,85.66l7.84,24.65c5.44.21,6.73-1.66,4.68-7-1.64-4.25-2.58-8.87-4.82-12.75-2.7-4.68-1.85-6.68,4.66-6.82l-5.22-6.41c-4.6,2.52-8.83,4.63-12.78,7.16-.8.51-.59,2.6-.85,4a38.62,38.62,0,0,0,4-.82C1593.89,87.48,1594.35,86.84,1595.77,85.66Zm153.08,24.71a16.42,16.42,0,0,1-1.49,2.71c-3.8,4.6-7.52,9.27-11.55,13.67-2.7,2.95-.72,4.87,1.23,6.45.51.41,3.08-.92,4-2,1.7-2,2.78-4.46,4.29-6.61,2.7-3.83,5.54-7.56,8.57-11.66l4.5,5.23c2.28-3.79,2.59-6.4-1.79-8.28-2.14-.92-3.67-3.15-5.74-4.32a11.49,11.49,0,0,0-5.23-1.22c-.42,0-1.57,2.55-1.21,3C1745.38,108.49,1747,109.14,1748.85,110.37Z"/><path d="M1565.23,239.72c2,5.65,4.41,11.19,5.85,17,1.5,6-4.64,13.37-11.11,13.54-9.69.25-19.39.06-29.83.06v-6q0-24,0-48a23,23,0,0,0-.26-4.82c-1.78-8.18.24-10.4,8.14-8.2A56.32,56.32,0,0,1,1563.6,219c4.71,4.9,4.2,10.92,2.14,16.89a35.67,35.67,0,0,1-2.09,4.23Zm-21.92,19.77c2.87,0,5.19,0,7.5,0,5.84-.07,8-3.34,5.77-8.72-1.51-3.65-8.95-7.49-13.27-6.8Zm-.2-45.42c0,6.61-.2,11.9.09,17.15.12,2.21,1.28,4.36,2,6.54a58.62,58.62,0,0,0,6.62-3.92c.76-.58.89-2.18,1-3.35C1553.72,223.17,1548.64,219.38,1543.11,214.07Z"/><path d="M1708,269.67c-9.84,2.21-15.87-1.8-21-8.72-4-5.34-8.67-10.13-13-15.17l-1.88.67,4,22.49h-18.15a231.66,231.66,0,0,0-.09-66.43h17.25l-2.71,22.9,1.79.7a39.07,39.07,0,0,1,3.18-5c5-5.81,9.37-12.63,15.52-16.81,3.82-2.6,10.41-1.12,15.76-1.48-.36,1.58-.18,3.77-1.17,4.66-9.33,8.38-18.88,16.53-28.33,24.77-2,1.77-2.66,2.86.19,5.26,9.21,7.77,18.06,16,26.65,24.46C1707.57,263.55,1707.33,267,1708,269.67Z"/><path d="M1624.45,270.29l-.3-5.08c-3.78-.7-7.32-1.18-10.76-2-8.33-2.07-10.73-.93-13.6,6.93h-9.49c1-8.31,1.37-16.45,3.09-24.3a136.33,136.33,0,0,1,7.21-21.93,202.14,202.14,0,0,1,9.72-19.82c2-3.72,6.26-3.73,8.39.15,4.23,7.69,9.06,15.33,11.6,23.61,3.63,11.86,5.32,24.3,8.06,36.44,1.06,4.7-1.72,5.66-5.16,6C1630.38,270.51,1627.52,270.29,1624.45,270.29ZM1602.3,252l18.66,1.72c.67-11.41-5.13-21.18-7.27-31.81l-1.42-.1Z"/><path d="M1731.33,223.53c0-5.95.14-11.9-.05-17.84-.12-3.58,1.32-5,4.78-4.62,1.43.14,2.88,0,4.32,0,3.38,0,5.05,1.21,5.09,5.06.12,11.65.21,23.32,1.21,34.91.39,4.52,2.62,9.18,5.05,13.14,2.75,4.47,12.85,2.65,14.77-2.32,4.34-11.23,4.62-22.74,2.94-34.58-.66-4.63.26-9.62,1.27-14.27.22-1,3.87-1.79,5.92-1.75,1.14,0,3.21,2,3.2,3.06-.11,13.09-.25,26.18-1,39.24a49.39,49.39,0,0,1-3.45,15.86,13.78,13.78,0,0,1-9.31,8.09c-5.09,1.55-9.69,2.71-14.9,1.72-9.51-1.81-18-10.9-18.74-20.56-.65-8.37-1.08-16.76-1.61-25.14Z"/><path d="M1509.43,271.38c-3.74,0-7.19.41-10.47-.17-1.66-.29-3-2.36-4.51-3.62s-2.92-3.47-4.51-3.6c-5.51-.45-11.08-.17-16.56-.17-1.16,8-1.16,8-11.08,7.23.72-6.93,1.16-13.9,2.2-20.78,2.32-15.24,8.37-29.13,16.2-42.28a25.75,25.75,0,0,1,4-4.66c1.91-1.93,3.27-1.66,4.8.83a136.25,136.25,0,0,1,18.79,48.79C1509.32,258.82,1509.08,264.9,1509.43,271.38Zm-14.75-15L1484,224.63c-5,10.17-8.51,19.11-7.8,29.19Z"/><path d="M1807.76,238.76c1.19,2.29,2.57,4.5,3.54,6.87,3.39,8.35,14.18,13,22.19,9.17,1.66-.8,3.77-3.36,3.54-4.76a9.22,9.22,0,0,0-4.1-5.54c-7-4.26-14.75-7.48-21.42-12.2-9.17-6.5-9.24-21.8.89-27.94,9.17-5.56,18.39-4.46,26.26,2.91,3.23,3,4.3,8.09,1.66,10.33-3.28,2.78-6.66.55-9.64-1.14a28.23,28.23,0,0,1-5.62-4.48c-2.72-2.66-5.92-2.24-7.57.25-1.31,2-3.18,5.49.46,7.85,5.85,3.79,11.58,7.78,17.59,11.3,10.81,6.33,15.41,15.72,12.4,27.61a10.49,10.49,0,0,1-5.37,6.3c-8.67,3.52-17.46,4.24-26.73.93-6.08-2.17-11.24-4.83-11.91-11.39-.53-5.23.84-10.65,1.36-16Z"/><path d="M1549.41,351.8l6.49,6c-2.41-.12-4.3.34-4.88-.34-2.27-2.64-4.59-1.41-5.86.28a44.64,44.64,0,0,0-5,9.6c-.09.21,3.07,1.53,4.41,2.7a18,18,0,0,1,2.59,3.69c-1.8.61-4.25,2.27-5.29,1.64a52.76,52.76,0,0,1-9.4-7.76c-.65-.64-.47-3,.22-4,4.27-5.65,8.83-11.08,13.22-16.64a5.66,5.66,0,0,0,1.22-3.65c-3.31,2.7-6.8,5.21-9.89,8.14s-6,6.47-9.27,10c-3-3.29-5.14-5.84-.28-9.35,6.39-4.61,12.39-9.74,18.56-14.65l-1.44-2.68c1.25,2,2.23,4.19,3.8,5.87a55.33,55.33,0,0,0,8.43,7.7c2.69,1.89,3.26,3.45,1.1,5.83l-7.89-4.2Z"/><path d="M1743.9,369.49c3.15,4,5.87,6.84,7.78,10.15.85,1.49.06,3.92,0,5.92-1.46-.75-3.31-1.17-4.31-2.32a155.77,155.77,0,0,1-12.14-15c-1.38-2-.91-5.32-1.29-8,2,.14,4.13,0,6,.49,3.14.87,6.14,2.21,10.64,3.89-1.51-2.74-2.48-4.6-3.54-6.4-.84-1.43-2.09-2.71-2.54-4.23-.26-.89.52-2.89,1.17-3.06a4.12,4.12,0,0,1,3.59.93q7.57,9.85,14.71,20c.68,1,.83,3.57.4,3.79a6.32,6.32,0,0,1-4.55.62C1754.84,374.4,1750,372.12,1743.9,369.49Z"/><path d="M1633,422.9c-3.17-6.64,3.41-13.39-3.93-17.36-.82,3.43-1.46,7.12-2.64,10.62-.63,1.87-2.22,3.42-3.38,5.11l-1.72-.79a8,8,0,0,1-.25-1.87c1.06-10.54,2.07-21.1,3.34-31.61.14-1.12,2.13-3,2.74-2.86a5.84,5.84,0,0,1,3.46,3,10.1,10.1,0,0,1,0,5.33c-1.47,6.86-1.54,6.84,3.16,13.17a32,32,0,0,0,.65-4.59c-.06-4.28-.56-8.57-.26-12.82.08-1.17,2.36-2.19,3.62-3.27,1,1.46,3.14,3.06,3,4.36-1.28,9.6-2.93,19.15-4.69,28.68C1635.79,419.52,1634.36,420.78,1633,422.9Z"/><path d="M1720.14,369l4.8,4-.42-6.1c3.23-4,4.1-3.65,6.94,1.73,3.19,6,7.24,11.63,10.6,17.59.92,1.63,1.61,5.13.91,5.62-2.4,1.66-4.39,1.06-5.89-2.28-2-4.49-5.11-8.49-7.94-13l-3.55,1.65,10.3,17.15c-5.33,4.63-5,4.46-8.12-2a108.41,108.41,0,0,0-9.23-15.13C1715.71,374.08,1715.77,371.17,1720.14,369Z"/><path d="M1536.62,331.81c0,8.9-7.68,17.55-14.46,17.46-4.08-.06-9.68-4.39-10.61-9.79-.35-2,2.64-5,4.62-7a120.56,120.56,0,0,1,11.1-10c1.51-1.2,4.08-2.48,5.5-1.95s2.14,3.24,2.7,5.13A46.48,46.48,0,0,1,1536.62,331.81Zm-4.79-4.8c-4,3.11-8.21,5.91-11.77,9.36-1.14,1.1-.92,4-.65,5.95.08.59,2.69,1.56,3.7,1.18C1528.48,341.45,1532.56,333.52,1531.83,327Z"/><path d="M1571.91,382.85c1.25,4-1.5,9.55,5.85,11.75a77.62,77.62,0,0,1-1.15-8.13c-.16-4.63-.65-9.39.2-13.88.9-4.8,5.15-4.65,8.32-2.59,2.06,1.35,3.61,4.22,4.29,6.71.46,1.66-1,3.86-2.08,7.31l-3.92-6.73-1.23.15c.8,4.57,1.44,9.17,2.43,13.7,1.17,5.36-.23,7.65-5.9,8.91-4.24.95-9.94-2.2-10.7-5.91C1567,389.08,1568.13,385.57,1571.91,382.85Z"/><path d="M1618.49,395.28c-1.55-2.23-2.69-4.12-4.08-5.79-.81-1-2.23-2.4-3-2.21-2.26.55-5.65,1.35-6.25,2.93a35.26,35.26,0,0,0-2.3,12.81c.07,3.9,6.06,5.51,12,3.75.56,5.52-3,8.55-8.39,7.16-8.17-2.09-13.52-14.38-8.59-21.19,3-4.15,3.51-11.14,10.36-11.58,2.94-.19,7.8.23,8.59,1.89C1618.35,386.33,1623.59,389.47,1618.49,395.28Z"/><path d="M1677.63,416.43l-5.37-8-1.6.76c.37,1.77,1.18,3.6,1,5.31-.17,1.4-1.54,2.66-2.38,4-.95-1-2.49-1.95-2.74-3.14-1.61-7.52-3.11-15.07-4.22-22.67-.26-1.8.54-4.55,1.85-5.55s4.15-.85,5.73,0c6.2,3.17,8.23,9,7.16,16.13-.38,2.5,1.19,5.36,2.11,8a18.31,18.31,0,0,0,2.22,3.52Zm-8.11-14.26,2-.19c3.37-4.07-.25-6.82-3.22-9.72Z"/><path d="M1779,350c2.49,3.61,2.85,6.21,0,9.69-8.51,10.34-9.12,10.39-17.53,0-2-2.52-5.52-3.82-7.8-6.2-1.71-1.79-4.15-5.26-3.49-6.49,1.76-3.28,5-5.8,7.77-8.45.24-.23,1.71.85,2.65,1.33l-4.57,6.38,1.16,1,6.44-5.46c-.13,2.75.49,5.16-.41,6.1-3.26,3.38-.52,5,1.46,7,.25.25.57.44.84.67,7.12,5.94,7.11,5.94,11.63-2.8C1777.56,352,1778.19,351.18,1779,350Z"/><path d="M1692.13,381.09v5.64l-6.1.88.1,1.07,6.57-.51c.79,4.68.79,4.68-5.93,6.25l4,15a53.5,53.5,0,0,1,6.42-2.55,18.49,18.49,0,0,1,4.57,0c-.83,1.44-1.34,3.68-2.55,4.16-3.87,1.53-8,2.4-12.85,3.76-1.66-7.24-3.2-14-4.72-20.7-.12-.52,0-1.08-.11-1.61-.46-2.81-2-7.72-1.24-8.08C1683.8,382.64,1688,382.11,1692.13,381.09Z"/><path d="M1721.31,394.59c3.15,3.28,1.1,8.85-3.72,10.93-6.85,3-14.47-1.45-17.35-10-2.49-7.45.11-16,5.88-19.34,3.42-2,10.61.32,11.88,3.94a3.11,3.11,0,0,1-.54,2.82c-.84.58-2.83.91-3.24.43-2.44-2.86-5.4-4-7.37-.46-1.64,2.93-1.8,6.77-2.23,10.26-.12,1,1.1,2.14,1.7,3.23,3.91,7.08,8.45,7.3,13.09.64C1720,396.16,1720.66,395.41,1721.31,394.59Z"/><path d="M1791.94,346.38c-8.39,2.25-10.69-4.26-15.1-6.72a11.24,11.24,0,0,1-3-2.68c-3.51-4.26-6.69-5.66-9.43,1.31-1.46-8.31,3.4-13.16,8.16-19.1,1.2,2.8,7,4.26.35,6.68.48,1.29.59,3,1.51,3.81,4.51,3.82,9.33,7.27,13.82,11.12C1789.68,342.05,1790.46,344.1,1791.94,346.38Z"/><path d="M1589,408.22l-4.33-3.22,12.5-30.19c5.93,2.53,3.75,6.22,2.56,9.11C1596.35,392.11,1592.59,400.13,1589,408.22Z"/><path d="M1573.61,128.38l-25.36-7.21c.52,4.08,5.43,9.75,15.13,16l-6.09,6.68L1538,121.78c-2.36-2.7-4.87-5.28-7-8.16-.6-.81-.53-3.2.07-3.6,1.45-1,3.61-1.94,5.09-1.51,6.72,1.94,13.29,4.38,19.94,6.58a19.13,19.13,0,0,0,3.49.38L1543.2,97.26l5-5.92,1,2.61c2.46,2.52,5.06,4.92,7.36,7.58,5.5,6.38,11,12.79,16.19,19.39,1.24,1.57,1.5,3.92,2.21,5.91Z"/><path d="M1616.22,73.87c1.23,1.56,3.09,3,3.56,4.72,1.65,6.19,2.82,12.51,4.18,18.83,6.44-.79,4.52-4.88,4.45-7.6-.16-5.67-.85-11.32-1.32-17l1.36-.8c1.14.94,3,1.69,3.31,2.84,1.67,6.44,3.59,12.92,4.17,19.5a9,9,0,0,1-8.25,9.8c-5.63.56-11.42-3-12-8.08-.79-6.89-1-13.85-1.41-20.78Z"/><path d="M1685.19,91.3c.73-6.9,5.27-13.12,10.41-13.51a12.75,12.75,0,0,1,14,10.88c.67,4.38,1.11,9.42-.45,13.33-1.29,3.24-5.55,7.17-8.69,7.36-4.22.25-10-.45-11.74-6.54C1687.58,98.95,1686.36,95.13,1685.19,91.3Zm20.54,5.58c-2.38-4.23-3.12-8.31-5.64-11.87-.88-1.24-3.74-2.37-4.85-1.82-1.7.83-3.82,3.24-3.71,4.84a45.69,45.69,0,0,0,2.77,11.63c1.18,3.39,3.79,6.46,7.54,4.84C1703.93,103.59,1703.7,100.16,1705.74,96.88Z"/><path d="M1659.09,98.48c-5,3.37-6.77,2.62-7.86-2.57-.34-1.6-1.47-3-2.75-5.54l-.66,9.66-4.72-.83c-1.73-10.14-5.39-20,0-29.77,10.53,3.38,15.31,14.18,9,20.52Z"/><path d="M1580.62,124.34c-5.37-5.06-6.88-11.55-8.22-18a64.44,64.44,0,0,1-1.1-10c-.13-2.77,1.76-4.59,4-2.84,6.54,5,14.05,9.1,17.75,17.26,1.89,4.17.67,5.16-3.34,5.24-2,0-4.6.18-5.81,1.39C1582.31,118.94,1581.8,121.65,1580.62,124.34Zm-2.45-22.78-2.07,1,3.61,12.36,5.53-3.68Z"/><path d="M1666.66,91.12c-.65,10.89-.65,10.89-5.75,8.94.77-8.4,1.47-16.57,2.33-24.73a9,9,0,0,1,1.64-4.69c.49-.57,3.32-.26,3.72.44a10,10,0,0,1,.8,5,20.51,20.51,0,0,1-.92,4.18l1.21.74c2-2.22,4-4.55,6.15-6.61a6.34,6.34,0,0,1,3.7-1.76c.63,0,1.93,1.76,1.86,2.65s-1.35,1.84-2.24,2.6c-2.82,2.42-5.9,4.59-8.44,7.27-.66.7-.15,3.19.57,4.41,2.38,4,5.11,7.83,8.47,12.87C1670.12,103,1671.33,94.38,1666.66,91.12Z"/><path d="M1733.7,100l-4.55,1.21-2.92-6.45c-3.83,2.56-2.26,5.27-1.43,8.15a41.22,41.22,0,0,1,2,10.75c0,3.19-1.89,6.65-5.56,5.89-3.34-.69-7.87-2.48-9.1-5.09-3-6.44-1.88-8.07,4-9.6,0,2.07-.57,4.24.16,5.8s2.77,2.58,4.23,3.84c.51-1.79,1.62-3.66,1.4-5.35-.51-3.95-1.85-7.78-2.51-11.71-.5-3,.09-6.6,3.71-6.37,3.11.2,6.26,2.26,9,4C1733.22,95.7,1733.15,98,1733.7,100Z"/><path d="M1595.77,85.66c-1.42,1.18-1.88,1.82-2.48,2a38.62,38.62,0,0,1-4,.82c.26-1.36,0-3.45.85-4,4-2.53,8.18-4.64,12.78-7.16l5.22,6.41c-6.5.13-7.36,2.14-4.66,6.82,2.24,3.88,3.18,8.51,4.82,12.75,2.05,5.31.76,7.17-4.68,7Z"/><path d="M1748.85,110.37c-1.88-1.23-3.46-1.88-4.38-3.05-.36-.46.79-3,1.21-3a11.49,11.49,0,0,1,5.23,1.22c2.07,1.17,3.61,3.41,5.74,4.32,4.38,1.88,4.07,4.49,1.79,8.28l-4.5-5.23c-3,4.11-5.87,7.84-8.57,11.66-1.52,2.15-2.6,4.63-4.29,6.61-1,1.11-3.52,2.45-4,2-1.94-1.57-3.93-3.5-1.23-6.45,4-4.39,7.75-9.07,11.55-13.67A16.42,16.42,0,0,0,1748.85,110.37Z"/><path class="cls-11" d="M1543.32,259.49V244c4.32-.69,11.76,3.14,13.27,6.8,2.22,5.38.07,8.64-5.77,8.72C1548.5,259.52,1546.19,259.49,1543.32,259.49Z"/><path class="cls-11" d="M1543.11,214.07c5.52,5.31,10.61,9.1,9.71,16.42-.14,1.17-.27,2.77-1,3.35a58.62,58.62,0,0,1-6.62,3.92c-.69-2.18-1.84-4.33-2-6.54C1542.92,226,1543.11,220.68,1543.11,214.07Z"/><path class="cls-11" d="M1602.3,252l10-30.2,1.42.1c2.14,10.63,7.94,20.4,7.27,31.81Z"/><path class="cls-11" d="M1494.68,256.42l-18.46-2.6c-.71-10.09,2.81-19,7.8-29.19Z"/><path class="cls-11" d="M1531.83,327c.73,6.51-3.35,14.45-8.71,16.48-1,.38-3.62-.59-3.7-1.18-.27-2-.49-4.84.65-5.95C1523.62,332.92,1527.81,330.12,1531.83,327Z"/><path class="cls-11" d="M1669.52,402.17l-1.2-9.92c3,2.91,6.59,5.65,3.22,9.72Z"/><path class="cls-11" d="M1705.74,96.88c.25,1.53-1.8,6.71-3.89,7.62-3.75,1.62-6.36-1.45-7.54-4.84A45.69,45.69,0,0,1,1691.53,88c-.11-1.6,2-4,3.71-4.84,1.11-.54,4,.59,4.85,1.82A47.63,47.63,0,0,1,1705.74,96.88Z"/><path class="cls-11" d="M1578.16,101.56l7.07,9.65-5.53,3.68-3.61-12.36Z"/><path class="cls-11" d="M1644,75.56c0,1.78-1.11,5.33,0,7.1s4.44,1.78,4.44,0,0-7.1-1.11-7.1C1645.15,73.79,1644,75.56,1644,75.56Z"/></g><g id="Schatten" class="cls-12"><path id="Baumstamm-2" data-name="Baumstamm" d="M1318,908s7.78,3.39-16.86,19.6S1120.94,987,1120.94,987l53.09,11.2s143.58-52.83,189.52-62.45c17.38-3.89,32.25-6.21,60.43-7.4l27.37-1.15S1393,924,1318,908Z"/><g id="Baumkrone-2" data-name="Baumkrone"><path d="M1042.68,1012c33.89-11.17,37.29-25.3,7.59-31.57s-81.25-2.3-115.14,8.87-37.29,25.3-7.59,31.57S1008.79,1023.19,1042.68,1012Z"/><path d="M1137.59,998c35.18-11.59,38.7-26.26,7.87-32.77s-84.33-2.38-119.51,9.21-38.7,26.26-7.87,32.77S1102.41,1009.64,1137.59,998Z"/><path d="M1226.88,1025.29c35.6-11.73,39.17-26.58,8-33.16s-85.36-2.41-121,9.32-39.17,26.58-8,33.16S1191.28,1037,1226.88,1025.29Z"/><path d="M1057.62,1036.17c32.17-10.6,35.4-24,7.2-30s-77.13-2.18-109.31,8.42-35.4,24-7.2,30S1025.45,1046.77,1057.62,1036.17Z"/><path d="M1152.34,1025.93c30.89-10.18,34-23.06,6.91-28.77s-74-2.09-104.93,8.09-34,23.06-6.91,28.77S1121.46,1036.11,1152.34,1025.93Z"/><path d="M1080,1060.43c34.53-11.38,38-25.78,7.73-32.17s-82.79-2.34-117.32,9-38,25.78-7.73,32.17S1045.51,1071.8,1080,1060.43Z"/><path d="M1173.29,1042.95c33.46-11,36.81-25,7.49-31.17s-80.22-2.27-113.68,8.76-36.81,25-7.49,31.17S1139.83,1054,1173.29,1042.95Z"/><path d="M996.42,1043.83c33.46-11,36.81-25,7.49-31.17s-80.22-2.27-113.68,8.76-36.81,25-7.49,31.17S963,1054.85,996.42,1043.83Z"/><path d="M1187.22,1056.38c37.32-12.3,41.06-27.86,8.35-34.76s-89.47-2.53-126.8,9.77-41.06,27.86-8.35,34.76S1149.9,1068.68,1187.22,1056.38Z"/></g></g></svg>